<?xml version="1.0" encoding="UTF-8"?><svg xmlns="http://www.w3.org/2000/svg" xmlns:xlink="http://www.w3.org/1999/xlink" viewBox="0 0 700 700"><defs><style>.l{fill:#fff;}.m{fill:url(#f);}.n{fill:url(#g);}.o{fill:url(#i);}.p{fill:url(#h);}.q{fill:url(#e);}.r{fill:url(#j);}.s{fill:url(#k);}</style><linearGradient id="e" x1="266" y1="285.49" x2="328.56" y2="285.49" gradientTransform="matrix(1, 0, 0, 1, 0, 0)" gradientUnits="userSpaceOnUse"><stop offset="0" stop-color="#cf6"/><stop offset=".02" stop-color="#cbfd66"/><stop offset=".29" stop-color="#c2ed6c"/><stop offset=".6" stop-color="#bce470"/><stop offset="1" stop-color="#bbe172"/></linearGradient><linearGradient id="f" x1="381.41" y1="285.49" x2="443.98" y2="285.49" xlink:href="#e"/><linearGradient id="g" x1="265.99" y1="358.49" x2="444" y2="358.49" xlink:href="#e"/><linearGradient id="h" x1="262.71" y1="18" x2="591.71" y2="370.75" gradientTransform="matrix(1, 0, 0, 1, 0, 0)" gradientUnits="userSpaceOnUse"><stop offset="0" stop-color="#5faf1c"/><stop offset=".05" stop-color="#69b426"/><stop offset=".2" stop-color="#87c441"/><stop offset=".37" stop-color="#9ed156"/><stop offset=".54" stop-color="#aeda66"/><stop offset=".74" stop-color="#b7df6f"/><stop offset="1" stop-color="#bbe172"/></linearGradient><linearGradient id="i" x1="6.56" y1="445.82" x2="344.31" y2="138.58" gradientTransform="matrix(1, 0, 0, 1, 0, 0)" gradientUnits="userSpaceOnUse"><stop offset="0" stop-color="#5faf1c"/><stop offset="1" stop-color="#bbe172"/></linearGradient><linearGradient id="j" x1="406.68" y1="683.26" x2="161.52" y2="267.85" gradientTransform="matrix(1, 0, 0, 1, 0, 0)" gradientUnits="userSpaceOnUse"><stop offset="0" stop-color="#5faf1c"/><stop offset=".2" stop-color="#63b120"/><stop offset=".41" stop-color="#70b82c"/><stop offset=".64" stop-color="#86c441"/><stop offset=".86" stop-color="#a5d55d"/><stop offset="1" stop-color="#bbe172"/></linearGradient><linearGradient id="k" x1="701.97" y1="295.19" x2="239" y2="521.88" gradientTransform="matrix(1, 0, 0, 1, 0, 0)" gradientUnits="userSpaceOnUse"><stop offset="0" stop-color="#5faf1c"/><stop offset="1" stop-color="#bbe172"/></linearGradient></defs><g id="a"/><g id="b"><g id="c"><g id="d"><path class="q" d="M289.93,255.08c6.22-1.49,12.91-1.06,18.86,1.32,9.55,3.68,16.96,12.4,19.06,22.42,1.44,6.54,.69,13.53-2.08,19.62-3.46,7.63-10.1,13.76-18.01,16.52-8.93,3.25-19.32,2.06-27.29-3.11-6.69-4.21-11.65-11.07-13.53-18.74-1.86-7.34-.94-15.34,2.57-22.05,4.1-7.93,11.74-13.92,20.42-15.98Z"/><path class="m" d="M406.05,254.92c6.3-1.37,13.02-.75,18.95,1.8,8.63,3.6,15.34,11.35,17.85,20.35,1.93,6.99,1.39,14.68-1.64,21.29-3.34,7.5-9.77,13.56-17.47,16.4-8.59,3.28-18.68,2.52-26.61-2.16-6.97-3.94-12.27-10.7-14.47-18.39-2.53-8.56-1.15-18.21,3.75-25.67,4.39-6.92,11.65-11.9,19.64-13.62Z"/><path class="n" d="M266.06,333.13c-.56-3.16,2.32-6.21,5.51-5.91,55.62,0,111.23,0,166.85,0,3.43-.36,6.36,3.21,5.41,6.5-.56,2.42-2.96,4.05-5.4,3.92-24.73,.03-49.47-.06-74.2,.05,8.86,14.83,17.84,29.58,26.62,44.46,2.04,3.21-.83,7.88-4.6,7.61-20.84,.05-41.7,.03-62.55,0-2.77,.13-5.26-2.43-5.21-5.18-.08-1.82,1.14-3.3,2-4.79,8.43-14.03,16.82-28.08,25.29-42.09-24.75-.15-49.5,0-74.25-.07-2.61,.11-5.24-1.8-5.47-4.51Z"/></g><path class="p" d="M350,0c-90.03,0-169.55,44.92-217.43,113.55,42.08-25.77,91.56-40.64,144.51-40.64,153.03,0,277.08,124.05,277.08,277.08,0,37.77-7.57,73.77-21.26,106.58,50.53-48.24,82.02-116.27,82.02-191.65C614.93,118.61,496.32,0,350,0Z"/><path class="o" d="M0,350c0,90.03,44.92,169.55,113.55,217.43-25.77-42.08-40.64-91.56-40.64-144.51,0-153.03,124.05-277.08,277.08-277.08,37.77,0,73.77,7.57,106.58,21.26-48.24-50.53-116.27-82.02-191.65-82.02C118.61,85.07,0,203.68,0,350Z"/><path class="r" d="M350,700c90.03,0,169.55-44.92,217.43-113.55-42.08,25.77-91.56,40.64-144.51,40.64-153.03,0-277.08-124.05-277.08-277.08,0-37.77,7.57-73.77,21.26-106.58-50.53,48.24-82.02,116.27-82.02,191.65,0,146.32,118.61,264.93,264.93,264.93Z"/><path class="s" d="M700,350c0-90.03-44.92-169.55-113.55-217.43,25.77,42.08,40.64,91.56,40.64,144.51,0,153.03-124.05,277.08-277.08,277.08-37.77,0-73.77-7.57-106.58-21.26,48.24,50.53,116.27,82.02,191.65,82.02,146.32,0,264.93-118.61,264.93-264.93Z"/><g><path class="l" d="M246.49,427.67c0,3.9-.74,7.23-2.21,9.97-1.47,2.74-3.48,4.83-6.01,6.27-2.54,1.44-5.38,2.16-8.54,2.16s-6.04-.72-8.57-2.17c-2.53-1.45-4.53-3.54-6-6.28-1.47-2.74-2.2-6.06-2.2-9.95s.73-7.23,2.2-9.97c1.47-2.74,3.47-4.83,6-6.27s5.39-2.16,8.57-2.16,6.01,.72,8.54,2.16,4.54,3.53,6.01,6.27c1.47,2.74,2.21,6.06,2.21,9.97Zm-7.68,0c0-2.53-.37-4.66-1.13-6.4-.75-1.74-1.81-3.06-3.17-3.96s-2.96-1.35-4.79-1.35-3.43,.45-4.79,1.35c-1.37,.9-2.42,2.22-3.17,3.96-.75,1.74-1.13,3.87-1.13,6.4s.38,4.66,1.13,6.4c.75,1.74,1.81,3.05,3.17,3.95,1.36,.9,2.96,1.35,4.79,1.35s3.43-.45,4.79-1.35,2.42-2.22,3.17-3.95c.75-1.74,1.13-3.87,1.13-6.4Z"/><path class="l" d="M280.1,424.71v5.91h-16.33v-5.91h16.33Z"/><path class="l" d="M298.01,445.58v-35.81h14.13c2.71,0,5.03,.52,6.94,1.55,1.91,1.03,3.37,2.46,4.38,4.29,1.01,1.82,1.51,3.92,1.51,6.3s-.51,4.48-1.54,6.3c-1.03,1.82-2.51,3.23-4.45,4.25s-4.29,1.52-7.04,1.52h-9.01v-6.07h7.78c1.46,0,2.66-.25,3.61-.76,.95-.51,1.66-1.21,2.14-2.12,.47-.91,.71-1.94,.71-3.12s-.24-2.23-.71-3.12c-.47-.89-1.19-1.59-2.14-2.08-.96-.49-2.17-.74-3.64-.74h-5.11v29.62h-7.57Z"/><path class="l" d="M329.76,445.58v-26.86h7.22v4.69h.28c.49-1.67,1.31-2.93,2.46-3.79s2.48-1.29,3.99-1.29c.37,0,.77,.02,1.21,.07s.81,.11,1.14,.19v6.61c-.35-.1-.83-.2-1.45-.28-.62-.08-1.19-.12-1.7-.12-1.09,0-2.07,.24-2.93,.71-.85,.47-1.53,1.13-2.03,1.97-.5,.84-.74,1.81-.74,2.9v15.2h-7.45Z"/><path class="l" d="M360.76,446.1c-2.72,0-5.06-.58-7.04-1.74-1.98-1.16-3.5-2.78-4.57-4.86-1.07-2.08-1.61-4.5-1.61-7.25s.54-5.2,1.61-7.29c1.07-2.08,2.6-3.7,4.57-4.86,1.98-1.16,4.32-1.74,7.04-1.74s5.06,.58,7.04,1.74c1.98,1.16,3.5,2.78,4.57,4.86,1.07,2.08,1.61,4.51,1.61,7.29s-.54,5.17-1.61,7.25c-1.07,2.08-2.6,3.7-4.57,4.86-1.98,1.16-4.32,1.74-7.04,1.74Zm.04-5.77c1.23,0,2.27-.35,3.09-1.06,.83-.71,1.45-1.67,1.88-2.89,.43-1.23,.64-2.62,.64-4.18s-.21-2.96-.64-4.18c-.42-1.23-1.05-2.19-1.88-2.9-.83-.71-1.86-1.07-3.09-1.07s-2.29,.36-3.14,1.07c-.85,.71-1.48,1.68-1.91,2.9-.42,1.22-.64,2.62-.64,4.18s.21,2.95,.64,4.18c.42,1.22,1.06,2.19,1.91,2.89s1.89,1.06,3.14,1.06Z"/><path class="l" d="M390.94,456.21c-2.41,0-4.48-.33-6.2-.99-1.72-.66-3.09-1.55-4.1-2.68s-1.67-2.4-1.98-3.81l6.89-.93c.21,.54,.54,1.04,1,1.5,.46,.47,1.06,.85,1.81,1.13,.75,.28,1.67,.43,2.75,.43,1.62,0,2.96-.39,4.02-1.18,1.05-.79,1.58-2.1,1.58-3.94v-4.91h-.31c-.33,.75-.82,1.45-1.47,2.12s-1.49,1.21-2.52,1.63-2.25,.63-3.67,.63c-2.02,0-3.85-.47-5.5-1.41-1.65-.94-2.96-2.38-3.94-4.32-.97-1.94-1.46-4.4-1.46-7.37s.5-5.59,1.49-7.63,2.31-3.57,3.96-4.58c1.65-1.01,3.46-1.52,5.43-1.52,1.51,0,2.77,.25,3.78,.76s1.83,1.14,2.46,1.89c.62,.75,1.1,1.49,1.44,2.21h.28v-4.51h7.4v27.12c0,2.29-.56,4.2-1.68,5.74-1.12,1.54-2.67,2.69-4.64,3.47-1.98,.77-4.25,1.16-6.81,1.16Zm.16-16.61c1.2,0,2.22-.3,3.05-.9s1.47-1.46,1.92-2.59,.67-2.47,.67-4.05-.22-2.94-.67-4.1c-.44-1.16-1.08-2.06-1.92-2.7-.84-.64-1.86-.96-3.06-.96s-2.26,.33-3.1,.99c-.84,.66-1.47,1.57-1.9,2.74-.43,1.17-.65,2.51-.65,4.04s.22,2.89,.66,4.01c.44,1.13,1.07,2,1.91,2.61,.83,.61,1.86,.92,3.09,.92Z"/><path class="l" d="M410.03,445.58v-26.86h7.22v4.69h.28c.49-1.67,1.31-2.93,2.46-3.79s2.48-1.29,3.99-1.29c.37,0,.77,.02,1.21,.07s.81,.11,1.14,.19v6.61c-.35-.1-.83-.2-1.45-.28-.62-.08-1.19-.12-1.7-.12-1.09,0-2.07,.24-2.93,.71-.85,.47-1.53,1.13-2.03,1.97-.5,.84-.74,1.81-.74,2.9v15.2h-7.45Z"/><path class="l" d="M437.05,446.09c-1.72,0-3.24-.3-4.58-.9-1.34-.6-2.4-1.49-3.17-2.68-.78-1.18-1.16-2.66-1.16-4.43,0-1.49,.27-2.75,.82-3.76,.54-1.01,1.29-1.83,2.24-2.45,.95-.62,2.02-1.09,3.23-1.4,1.21-.32,2.48-.54,3.8-.67,1.56-.16,2.82-.32,3.78-.46,.95-.14,1.65-.36,2.08-.65,.43-.29,.65-.73,.65-1.29v-.1c0-1.11-.35-1.97-1.04-2.57s-1.68-.91-2.95-.91c-1.34,0-2.41,.3-3.2,.89s-1.32,1.33-1.57,2.21l-6.89-.56c.35-1.63,1.04-3.05,2.06-4.24s2.35-2.12,3.98-2.77c1.63-.65,3.51-.97,5.66-.97,1.49,0,2.92,.18,4.29,.52s2.59,.89,3.65,1.63,1.91,1.68,2.52,2.83c.62,1.15,.93,2.52,.93,4.12v18.12h-7.06v-3.72h-.21c-.43,.84-1.01,1.57-1.73,2.21-.72,.63-1.59,1.13-2.6,1.48-1.01,.36-2.18,.54-3.51,.54Zm2.13-5.14c1.1,0,2.06-.22,2.91-.66,.84-.44,1.5-1.03,1.98-1.78s.72-1.59,.72-2.54v-2.85c-.23,.15-.55,.29-.95,.41-.4,.12-.85,.23-1.35,.33-.5,.1-1,.18-1.5,.26-.5,.08-.96,.14-1.37,.2-.87,.13-1.64,.33-2.29,.61-.65,.28-1.16,.66-1.52,1.13-.36,.47-.54,1.06-.54,1.76,0,1.01,.37,1.79,1.11,2.32,.74,.53,1.68,.8,2.82,.8Z"/><path class="l" d="M457.97,445.58v-26.86h7.1v4.74h.32c.56-1.57,1.49-2.82,2.8-3.72,1.31-.91,2.87-1.37,4.69-1.37s3.41,.46,4.7,1.37c1.29,.91,2.16,2.15,2.59,3.71h.28c.55-1.54,1.54-2.77,2.98-3.7s3.15-1.39,5.11-1.39c2.51,0,4.54,.8,6.12,2.39,1.57,1.59,2.35,3.84,2.35,6.76v18.06h-7.43v-16.59c0-1.49-.4-2.61-1.19-3.36s-1.78-1.12-2.97-1.12c-1.35,0-2.4,.43-3.16,1.29-.76,.85-1.14,1.98-1.14,3.38v16.4h-7.22v-16.75c0-1.32-.38-2.37-1.13-3.15-.75-.78-1.74-1.17-2.96-1.17-.83,0-1.57,.21-2.23,.62-.66,.41-1.18,.99-1.56,1.73s-.58,1.61-.58,2.6v16.12h-7.45Z"/></g></g></g></svg>