<?xml version="1.0" encoding="UTF-8"?><svg xmlns="http://www.w3.org/2000/svg" xmlns:xlink="http://www.w3.org/1999/xlink" viewBox="0 0 700 700"><defs><style>.i{fill:url(#f);}.j{fill:url(#g);}.k{fill:url(#d);}.l{fill:url(#e);}.m{fill:#f2f2f2;}</style><linearGradient id="d" x1="262.71" y1="18" x2="591.71" y2="370.75" gradientTransform="matrix(1, 0, 0, 1, 0, 0)" gradientUnits="userSpaceOnUse"><stop offset="0" stop-color="#0120ad"/><stop offset=".1" stop-color="#0a4fbf"/><stop offset=".2" stop-color="#1279d0"/><stop offset=".31" stop-color="#199ede"/><stop offset=".42" stop-color="#1fbcea"/><stop offset=".54" stop-color="#24d3f3"/><stop offset=".67" stop-color="#27e3fa"/><stop offset=".81" stop-color="#29ecfd"/><stop offset="1" stop-color="#2af0ff"/></linearGradient><linearGradient id="e" x1="6.56" y1="445.82" x2="344.31" y2="138.58" gradientTransform="matrix(1, 0, 0, 1, 0, 0)" gradientUnits="userSpaceOnUse"><stop offset="0" stop-color="#0019aa"/><stop offset="1" stop-color="#2af0ff"/></linearGradient><linearGradient id="f" x1="433.15" y1="728.1" x2="187.98" y2="312.69" xlink:href="#e"/><linearGradient id="g" x1="701.97" y1="295.19" x2="291.9" y2="495.98" gradientTransform="matrix(1, 0, 0, 1, 0, 0)" gradientUnits="userSpaceOnUse"><stop offset="0" stop-color="#0019aa"/><stop offset="1" stop-color="#2af0ff"/></linearGradient></defs><g id="a"/><g id="b"><g id="c"><path class="k" d="M350,0c-90.03,0-169.55,44.92-217.43,113.55,42.08-25.77,91.56-40.64,144.51-40.64,153.03,0,277.08,124.05,277.08,277.08,0,37.77-7.57,73.77-21.26,106.58,50.53-48.24,82.02-116.27,82.02-191.65C614.93,118.61,496.32,0,350,0Z"/><path class="l" d="M0,350c0,90.03,44.92,169.55,113.55,217.43-25.77-42.08-40.64-91.56-40.64-144.51,0-153.03,124.05-277.08,277.08-277.08,37.77,0,73.77,7.57,106.58,21.26-48.24-50.53-116.27-82.02-191.65-82.02C118.61,85.07,0,203.68,0,350Z"/><path class="i" d="M350,700c90.03,0,169.55-44.92,217.43-113.55-42.08,25.77-91.56,40.64-144.51,40.64-153.03,0-277.08-124.05-277.08-277.08,0-37.77,7.57-73.77,21.26-106.58-50.53,48.24-82.02,116.27-82.02,191.65,0,146.32,118.61,264.93,264.93,264.93Z"/><path class="j" d="M700,350c0-90.03-44.92-169.55-113.55-217.43,25.77,42.08,40.64,91.56,40.64,144.51,0,153.03-124.05,277.08-277.08,277.08-37.77,0-73.77-7.57-106.58-21.26,48.24,50.53,116.27,82.02,191.65,82.02,146.32,0,264.93-118.61,264.93-264.93Z"/><g><path class="m" d="M215.38,378.36v-36.71h24.31v6.4h-16.55v8.75h14.93v6.4h-14.93v15.16h-7.76Z"/><path class="m" d="M273.62,356.98v6.06h-16.74v-6.06h16.74Z"/><path class="m" d="M291.98,378.36v-36.71h14.48c2.78,0,5.16,.53,7.12,1.59,1.96,1.06,3.45,2.52,4.49,4.39,1.04,1.87,1.55,4.02,1.55,6.46s-.53,4.59-1.58,6.45-2.57,3.32-4.56,4.36-4.4,1.56-7.21,1.56h-9.23v-6.22h7.98c1.5,0,2.73-.26,3.7-.78s1.7-1.24,2.19-2.17c.48-.93,.72-1.99,.72-3.2s-.24-2.28-.72-3.2c-.48-.91-1.22-1.62-2.2-2.13-.98-.51-2.22-.76-3.73-.76h-5.23v30.37h-7.76Z"/><path class="m" d="M324.53,378.36v-27.53h7.4v4.8h.29c.5-1.71,1.34-3,2.53-3.88,1.18-.88,2.55-1.32,4.09-1.32,.38,0,.79,.02,1.24,.07s.83,.11,1.17,.2v6.78c-.36-.11-.85-.2-1.49-.29-.64-.08-1.22-.13-1.74-.13-1.12,0-2.12,.24-3,.73-.88,.48-1.57,1.16-2.08,2.02s-.76,1.85-.76,2.98v15.58h-7.64Z"/><path class="m" d="M356.31,378.9c-2.79,0-5.19-.6-7.21-1.78-2.03-1.19-3.59-2.85-4.69-4.98-1.1-2.13-1.65-4.61-1.65-7.43s.55-5.33,1.65-7.47c1.1-2.13,2.66-3.79,4.69-4.98s4.43-1.78,7.21-1.78,5.19,.6,7.22,1.78c2.03,1.19,3.59,2.85,4.69,4.98,1.1,2.13,1.65,4.62,1.65,7.47s-.55,5.3-1.65,7.43c-1.1,2.13-2.66,3.8-4.69,4.98-2.03,1.19-4.43,1.78-7.22,1.78Zm.04-5.92c1.27,0,2.33-.36,3.17-1.08,.85-.72,1.49-1.71,1.93-2.97,.44-1.25,.66-2.68,.66-4.28s-.22-3.03-.66-4.28c-.44-1.25-1.08-2.25-1.93-2.98-.85-.73-1.91-1.09-3.17-1.09s-2.35,.36-3.22,1.09-1.52,1.72-1.96,2.98-.65,2.68-.65,4.28,.22,3.03,.65,4.28c.44,1.25,1.09,2.25,1.96,2.97s1.94,1.08,3.22,1.08Z"/><path class="m" d="M387.25,389.26c-2.47,0-4.59-.34-6.35-1.01-1.77-.68-3.17-1.59-4.21-2.75-1.04-1.16-1.71-2.46-2.03-3.91l7.06-.95c.22,.55,.56,1.06,1.02,1.54,.47,.48,1.08,.86,1.86,1.16,.77,.29,1.71,.44,2.82,.44,1.66,0,3.03-.4,4.12-1.21,1.08-.81,1.62-2.15,1.62-4.04v-5.04h-.32c-.34,.77-.84,1.49-1.51,2.17-.67,.68-1.53,1.24-2.58,1.67-1.05,.43-2.3,.64-3.76,.64-2.07,0-3.95-.48-5.64-1.44-1.69-.96-3.04-2.44-4.03-4.43-.99-1.99-1.5-4.51-1.5-7.56s.51-5.72,1.52-7.82,2.37-3.66,4.06-4.7c1.69-1.04,3.55-1.56,5.57-1.56,1.54,0,2.83,.26,3.87,.78s1.88,1.16,2.52,1.94c.64,.77,1.13,1.53,1.48,2.27h.29v-4.63h7.58v27.8c0,2.34-.58,4.3-1.72,5.88-1.15,1.58-2.74,2.76-4.76,3.56s-4.35,1.19-6.98,1.19Zm.16-17.03c1.23,0,2.27-.31,3.13-.92s1.51-1.5,1.97-2.65c.46-1.15,.69-2.54,.69-4.15s-.23-3.02-.68-4.2c-.45-1.19-1.11-2.11-1.97-2.77-.86-.66-1.91-.99-3.13-.99s-2.31,.34-3.18,1.01c-.86,.68-1.51,1.61-1.95,2.81-.44,1.2-.67,2.58-.67,4.14s.23,2.96,.67,4.11c.45,1.15,1.1,2.04,1.96,2.67,.85,.63,1.91,.94,3.16,.94Z"/><path class="m" d="M406.81,378.36v-27.53h7.4v4.8h.29c.5-1.71,1.34-3,2.53-3.88,1.18-.88,2.55-1.32,4.09-1.32,.38,0,.79,.02,1.24,.07s.83,.11,1.17,.2v6.78c-.36-.11-.85-.2-1.49-.29-.64-.08-1.22-.13-1.74-.13-1.12,0-2.12,.24-3,.73-.88,.48-1.57,1.16-2.08,2.02s-.76,1.85-.76,2.98v15.58h-7.64Z"/><path class="m" d="M434.52,378.88c-1.76,0-3.32-.31-4.7-.92-1.38-.62-2.46-1.53-3.25-2.74-.8-1.21-1.19-2.73-1.19-4.54,0-1.53,.28-2.81,.84-3.85,.56-1.04,1.33-1.88,2.29-2.51,.97-.63,2.07-1.11,3.31-1.43s2.54-.55,3.9-.68c1.6-.17,2.89-.32,3.87-.47,.98-.15,1.69-.37,2.13-.67,.44-.3,.67-.74,.67-1.32v-.11c0-1.13-.36-2.01-1.07-2.64-.71-.62-1.72-.93-3.02-.93-1.38,0-2.47,.3-3.28,.9-.81,.6-1.35,1.36-1.61,2.27l-7.07-.57c.36-1.67,1.06-3.12,2.12-4.35,1.05-1.23,2.41-2.17,4.08-2.83s3.6-1,5.8-1c1.53,0,2.99,.18,4.4,.54,1.4,.36,2.65,.91,3.75,1.67,1.09,.75,1.96,1.72,2.59,2.89,.64,1.18,.95,2.59,.95,4.22v18.57h-7.24v-3.82h-.22c-.44,.86-1.03,1.62-1.77,2.27-.74,.65-1.63,1.16-2.67,1.52s-2.24,.55-3.6,.55Zm2.19-5.27c1.13,0,2.12-.22,2.98-.67,.86-.45,1.54-1.05,2.03-1.82,.49-.76,.74-1.63,.74-2.6v-2.92c-.24,.16-.57,.3-.98,.42s-.88,.24-1.39,.34c-.51,.1-1.03,.19-1.54,.27-.52,.08-.98,.15-1.4,.21-.9,.13-1.68,.34-2.35,.63-.67,.29-1.19,.67-1.56,1.16-.37,.48-.55,1.08-.55,1.8,0,1.04,.38,1.83,1.14,2.37,.76,.54,1.72,.82,2.89,.82Z"/><path class="m" d="M455.96,378.36v-27.53h7.28v4.86h.32c.58-1.61,1.53-2.89,2.87-3.82s2.94-1.4,4.81-1.4,3.5,.47,4.82,1.41c1.33,.94,2.21,2.21,2.65,3.81h.29c.56-1.58,1.58-2.84,3.06-3.79,1.47-.95,3.22-1.43,5.24-1.43,2.57,0,4.66,.82,6.27,2.45,1.61,1.63,2.41,3.94,2.41,6.93v18.52h-7.62v-17.01c0-1.53-.41-2.68-1.22-3.44-.81-.76-1.83-1.15-3.05-1.15-1.38,0-2.46,.44-3.24,1.32-.78,.88-1.17,2.04-1.17,3.47v16.81h-7.4v-17.17c0-1.35-.39-2.43-1.16-3.23-.77-.8-1.78-1.2-3.04-1.2-.85,0-1.61,.21-2.29,.63-.67,.43-1.21,1.02-1.6,1.77-.39,.76-.59,1.65-.59,2.66v16.53h-7.64Z"/></g></g><g id="h"><g><path class="m" d="M346.35,323.61c-20.27,0-36.7-16.78-36.7-37.48s16.43-37.48,36.7-37.48c-15.2,0-27.53,16.78-27.53,37.48s12.32,37.48,27.53,37.48Z"/><path class="m" d="M383.05,286.13c0,20.7-16.43,37.48-36.7,37.48,15.2,0,27.53-16.78,27.53-37.48s-12.32-37.48-27.53-37.48c20.27,0,36.7,16.78,36.7,37.48Z"/><path class="m" d="M346.35,314.24c-15.2,0-27.53-12.59-27.53-28.11s12.32-28.11,27.53-28.11c-10.14,0-18.35,12.59-18.35,28.11s8.21,28.11,18.35,28.11Z"/><path class="m" d="M373.87,286.13c0,15.53-12.32,28.11-27.53,28.11,10.14,0,18.35-12.58,18.35-28.11s-8.21-28.11-18.35-28.11c15.2,0,27.53,12.58,27.53,28.11Z"/><path class="m" d="M337.17,286.13c0-10.35,4.11-18.74,9.18-18.74-10.14,0-18.35,8.39-18.35,18.74s8.22,18.74,18.35,18.74c-5.07,0-9.18-8.39-9.18-18.74Z"/><path class="m" d="M346.35,267.39c5.07,0,9.18,8.39,9.18,18.74s-4.11,18.74-9.18,18.74c10.14,0,18.35-8.39,18.35-18.74s-8.22-18.74-18.35-18.74Z"/></g></g></g></svg>