<?xml version="1.0" encoding="UTF-8"?><svg xmlns="http://www.w3.org/2000/svg" xmlns:xlink="http://www.w3.org/1999/xlink" viewBox="0 0 700 700"><defs><style>.j{fill:#fff;}.k{fill:url(#f);}.l{fill:url(#g);}.m{fill:url(#i);}.n{fill:url(#h);}.o{fill:url(#e);}</style><linearGradient id="e" x1="300.56" y1="322.02" x2="426" y2="322.02" gradientTransform="matrix(1, 0, 0, 1, 0, 0)" gradientUnits="userSpaceOnUse"><stop offset="0" stop-color="#1d60a4"/><stop offset=".1" stop-color="#3f7bb6"/><stop offset=".22" stop-color="#6398c9"/><stop offset=".35" stop-color="#81b0d8"/><stop offset=".48" stop-color="#98c2e4"/><stop offset=".63" stop-color="#a8cfed"/><stop offset=".79" stop-color="#b1d7f2"/><stop offset="1" stop-color="#b5daf4"/></linearGradient><linearGradient id="f" x1="262.71" y1="18" x2="591.71" y2="370.75" xlink:href="#e"/><linearGradient id="g" x1="6.56" y1="445.82" x2="344.31" y2="138.58" gradientTransform="matrix(1, 0, 0, 1, 0, 0)" gradientUnits="userSpaceOnUse"><stop offset="0" stop-color="#1d60a4"/><stop offset="1" stop-color="#b5daf4"/></linearGradient><linearGradient id="h" x1="406.68" y1="683.26" x2="161.52" y2="267.85" gradientTransform="matrix(1, 0, 0, 1, 0, 0)" gradientUnits="userSpaceOnUse"><stop offset="0" stop-color="#1d60a4"/><stop offset=".15" stop-color="#2163a6"/><stop offset=".31" stop-color="#2e6ead"/><stop offset=".48" stop-color="#447fb8"/><stop offset=".66" stop-color="#6398c9"/><stop offset=".84" stop-color="#8ab8dd"/><stop offset="1" stop-color="#b5daf4"/></linearGradient><linearGradient id="i" x1="701.97" y1="295.19" x2="239" y2="521.88" gradientTransform="matrix(1, 0, 0, 1, 0, 0)" gradientUnits="userSpaceOnUse"><stop offset="0" stop-color="#1d60a4"/><stop offset="1" stop-color="#b5daf4"/></linearGradient></defs><g id="a"/><g id="b"><g id="c"><g id="d"><path class="o" d="M332.49,260.38c12.41-5.69,26.91-7.1,40.05-3.21,12.65,3.6,23.87,11.85,31.2,22.75,6.07,8.9,9.33,19.56,9.7,30.29,3.85,6.13,8.05,12.06,11.98,18.14,.94,1.41,.65,3.3-.28,4.64-2.85,4.57-7.57,7.85-12.7,9.37-2.87,8.46-5.66,16.96-8.5,25.44-2.22,7.44-10.99,11.93-18.32,9.28-5.03-1.68-10.07-3.35-15.09-5.06-1.28,4.75-2.33,9.56-3.66,14.3-.49,1.76-2.31,2.87-4.1,2.71-15.2,0-30.4-.01-45.59,0-2.61,.26-4.86-2.49-4.06-4.99,2.53-9.68,5.18-19.34,7.71-29.03-8.64-6.85-15.1-16.41-18.06-27.04-4.03-14-2.49-29.49,4.08-42.49,5.39-10.94,14.54-20.01,25.64-25.11m46.27,28.44c-5.32,2.18-10.62,4.4-15.92,6.64-1.38,.56-2.25,2.01-2.3,3.47-.08,2.07,1.73,4.01,3.81,3.98,1.86-.03,3.48-1.13,5.19-1.75-3.7,5.6-7.46,11.17-11.16,16.78-4.47-4.41-8.88-8.89-13.34-13.31-1.04-1.11-2.74-1.67-4.18-1.05-1.33,.37-2.06,1.61-2.77,2.68-3.92,5.98-7.97,11.89-11.88,17.88-1.28,1.86-.43,4.67,1.61,5.6,1.76,.97,4,.1,5.07-1.48,3.29-4.95,6.59-9.89,9.89-14.83,4.48,4.5,8.98,8.97,13.46,13.47,1.69,1.71,4.85,1.39,6.07-.71,4.58-6.91,9.26-13.76,13.75-20.72,.22,2.24-.57,4.95,1.21,6.73,2.1,2.19,6.45,.84,6.62-2.29,.15-5.74,.03-11.48,.06-17.22,.21-2.62-2.72-4.82-5.18-3.86Z"/></g><path class="k" d="M350,0c-90.03,0-169.55,44.92-217.43,113.55,42.08-25.77,91.56-40.64,144.51-40.64,153.03,0,277.08,124.05,277.08,277.08,0,37.77-7.57,73.77-21.26,106.58,50.53-48.24,82.02-116.27,82.02-191.65C614.93,118.61,496.32,0,350,0Z"/><path class="l" d="M0,350c0,90.03,44.92,169.55,113.55,217.43-25.77-42.08-40.64-91.56-40.64-144.51,0-153.03,124.05-277.08,277.08-277.08,37.77,0,73.77,7.57,106.58,21.26-48.24-50.53-116.27-82.02-191.65-82.02C118.61,85.07,0,203.68,0,350Z"/><path class="n" d="M350,700c90.03,0,169.55-44.92,217.43-113.55-42.08,25.77-91.56,40.64-144.51,40.64-153.03,0-277.08-124.05-277.08-277.08,0-37.77,7.57-73.77,21.26-106.58-50.53,48.24-82.02,116.27-82.02,191.65,0,146.32,118.61,264.93,264.93,264.93Z"/><path class="m" d="M700,350c0-90.03-44.92-169.55-113.55-217.43,25.77,42.08,40.64,91.56,40.64,144.51,0,153.03-124.05,277.08-277.08,277.08-37.77,0-73.77-7.57-106.58-21.26,48.24,50.53,116.27,82.02,191.65,82.02,146.32,0,264.93-118.61,264.93-264.93Z"/><g><path class="j" d="M216.38,438.36v-36.71h24.31v6.4h-16.55v8.75h14.93v6.4h-14.93v15.16h-7.76Z"/><path class="j" d="M274.62,416.98v6.06h-16.74v-6.06h16.74Z"/><path class="j" d="M292.98,438.36v-36.71h14.48c2.78,0,5.16,.53,7.12,1.59,1.96,1.06,3.45,2.52,4.49,4.39,1.04,1.87,1.55,4.02,1.55,6.46s-.53,4.59-1.58,6.45-2.57,3.32-4.56,4.36-4.4,1.56-7.21,1.56h-9.23v-6.22h7.98c1.5,0,2.73-.26,3.7-.78s1.7-1.24,2.19-2.17c.48-.93,.72-1.99,.72-3.2s-.24-2.28-.72-3.2c-.48-.91-1.22-1.62-2.2-2.13-.98-.51-2.22-.76-3.73-.76h-5.23v30.37h-7.76Z"/><path class="j" d="M325.53,438.36v-27.53h7.4v4.8h.29c.5-1.71,1.34-3,2.53-3.88,1.18-.88,2.55-1.32,4.09-1.32,.38,0,.79,.02,1.24,.07s.83,.11,1.17,.2v6.78c-.36-.11-.85-.2-1.49-.29-.64-.08-1.22-.13-1.74-.13-1.12,0-2.12,.24-3,.73-.88,.48-1.57,1.16-2.08,2.02s-.76,1.85-.76,2.98v15.58h-7.64Z"/><path class="j" d="M357.31,438.9c-2.79,0-5.19-.6-7.21-1.78-2.03-1.19-3.59-2.85-4.69-4.98-1.1-2.13-1.65-4.61-1.65-7.43s.55-5.33,1.65-7.47c1.1-2.13,2.66-3.79,4.69-4.98s4.43-1.78,7.21-1.78,5.19,.6,7.22,1.78c2.03,1.19,3.59,2.85,4.69,4.98,1.1,2.13,1.65,4.62,1.65,7.47s-.55,5.3-1.65,7.43c-1.1,2.13-2.66,3.8-4.69,4.98-2.03,1.19-4.43,1.78-7.22,1.78Zm.04-5.92c1.27,0,2.33-.36,3.17-1.08,.85-.72,1.49-1.71,1.93-2.97,.44-1.25,.66-2.68,.66-4.28s-.22-3.03-.66-4.28c-.44-1.25-1.08-2.25-1.93-2.98-.85-.73-1.91-1.09-3.17-1.09s-2.35,.36-3.22,1.09-1.52,1.72-1.96,2.98-.65,2.68-.65,4.28,.22,3.03,.65,4.28c.44,1.25,1.09,2.25,1.96,2.97s1.94,1.08,3.22,1.08Z"/><path class="j" d="M388.25,449.26c-2.47,0-4.59-.34-6.35-1.01-1.77-.68-3.17-1.59-4.21-2.75-1.04-1.16-1.71-2.46-2.03-3.91l7.06-.95c.22,.55,.56,1.06,1.02,1.54,.47,.48,1.08,.86,1.86,1.16,.77,.29,1.71,.44,2.82,.44,1.66,0,3.03-.4,4.12-1.21,1.08-.81,1.62-2.15,1.62-4.04v-5.04h-.32c-.34,.77-.84,1.49-1.51,2.17-.67,.68-1.53,1.24-2.58,1.67-1.05,.43-2.3,.64-3.76,.64-2.07,0-3.95-.48-5.64-1.44-1.69-.96-3.04-2.44-4.03-4.43-.99-1.99-1.5-4.51-1.5-7.56s.51-5.72,1.52-7.82,2.37-3.66,4.06-4.7c1.69-1.04,3.55-1.56,5.57-1.56,1.54,0,2.83,.26,3.87,.78s1.88,1.16,2.52,1.94c.64,.77,1.13,1.53,1.48,2.27h.29v-4.63h7.58v27.8c0,2.34-.58,4.3-1.72,5.88-1.15,1.58-2.74,2.76-4.76,3.56s-4.35,1.19-6.98,1.19Zm.16-17.03c1.23,0,2.27-.31,3.13-.92s1.51-1.5,1.97-2.65c.46-1.15,.69-2.54,.69-4.15s-.23-3.02-.68-4.2c-.45-1.19-1.11-2.11-1.97-2.77-.86-.66-1.91-.99-3.13-.99s-2.31,.34-3.18,1.01c-.86,.68-1.51,1.61-1.95,2.81-.44,1.2-.67,2.58-.67,4.14s.23,2.96,.67,4.11c.45,1.15,1.1,2.04,1.96,2.67,.85,.63,1.91,.94,3.16,.94Z"/><path class="j" d="M407.81,438.36v-27.53h7.4v4.8h.29c.5-1.71,1.34-3,2.53-3.88,1.18-.88,2.55-1.32,4.09-1.32,.38,0,.79,.02,1.24,.07s.83,.11,1.17,.2v6.78c-.36-.11-.85-.2-1.49-.29-.64-.08-1.22-.13-1.74-.13-1.12,0-2.12,.24-3,.73-.88,.48-1.57,1.16-2.08,2.02s-.76,1.85-.76,2.98v15.58h-7.64Z"/><path class="j" d="M435.52,438.88c-1.76,0-3.32-.31-4.7-.92-1.38-.62-2.46-1.53-3.25-2.74-.8-1.21-1.19-2.73-1.19-4.54,0-1.53,.28-2.81,.84-3.85,.56-1.04,1.33-1.88,2.29-2.51,.97-.63,2.07-1.11,3.31-1.43s2.54-.55,3.9-.68c1.6-.17,2.89-.32,3.87-.47,.98-.15,1.69-.37,2.13-.67,.44-.3,.67-.74,.67-1.32v-.11c0-1.13-.36-2.01-1.07-2.64-.71-.62-1.72-.93-3.02-.93-1.38,0-2.47,.3-3.28,.9-.81,.6-1.35,1.36-1.61,2.27l-7.07-.57c.36-1.67,1.06-3.12,2.12-4.35,1.05-1.23,2.41-2.17,4.08-2.83s3.6-1,5.8-1c1.53,0,2.99,.18,4.4,.54,1.4,.36,2.65,.91,3.75,1.67,1.09,.75,1.96,1.72,2.59,2.89,.64,1.18,.95,2.59,.95,4.22v18.57h-7.24v-3.82h-.22c-.44,.86-1.03,1.62-1.77,2.27-.74,.65-1.63,1.16-2.67,1.52s-2.24,.55-3.6,.55Zm2.19-5.27c1.13,0,2.12-.22,2.98-.67,.86-.45,1.54-1.05,2.03-1.82,.49-.76,.74-1.63,.74-2.6v-2.92c-.24,.16-.57,.3-.98,.42s-.88,.24-1.39,.34c-.51,.1-1.03,.19-1.54,.27-.52,.08-.98,.15-1.4,.21-.9,.13-1.68,.34-2.35,.63-.67,.29-1.19,.67-1.56,1.16-.37,.48-.55,1.08-.55,1.8,0,1.04,.38,1.83,1.14,2.37,.76,.54,1.72,.82,2.89,.82Z"/><path class="j" d="M456.96,438.36v-27.53h7.28v4.86h.32c.58-1.61,1.53-2.89,2.87-3.82s2.94-1.4,4.81-1.4,3.5,.47,4.82,1.41c1.33,.94,2.21,2.21,2.65,3.81h.29c.56-1.58,1.58-2.84,3.06-3.79,1.47-.95,3.22-1.43,5.24-1.43,2.57,0,4.66,.82,6.27,2.45,1.61,1.63,2.41,3.94,2.41,6.93v18.52h-7.62v-17.01c0-1.53-.41-2.68-1.22-3.44-.81-.76-1.83-1.15-3.05-1.15-1.38,0-2.46,.44-3.24,1.32-.78,.88-1.17,2.04-1.17,3.47v16.81h-7.4v-17.17c0-1.35-.39-2.43-1.16-3.23-.77-.8-1.78-1.2-3.04-1.2-.85,0-1.61,.21-2.29,.63-.67,.43-1.21,1.02-1.6,1.77-.39,.76-.59,1.65-.59,2.66v16.53h-7.64Z"/></g></g></g></svg>