<?xml version="1.0" encoding="UTF-8"?><svg xmlns="http://www.w3.org/2000/svg" xmlns:xlink="http://www.w3.org/1999/xlink" viewBox="0 0 776 748"><defs><style>.l{fill:#d4e2f5;}.m{fill:#0c142c;}.n{fill:#4258cf;}.o{fill:#cf4d5e;filter:url(#d);}.p{fill:#38cf57;}.q{filter:url(#f);}</style><filter id="d" filterUnits="userSpaceOnUse"><feOffset dx="7" dy="7"/><feGaussianBlur result="e" stdDeviation="7"/><feFlood flood-color="#000" flood-opacity=".75"/><feComposite in2="e" operator="in"/><feComposite in="SourceGraphic"/></filter><filter id="f" filterUnits="userSpaceOnUse"><feOffset dx="7" dy="7"/><feGaussianBlur result="g" stdDeviation="7"/><feFlood flood-color="#000" flood-opacity=".75"/><feComposite in2="g" operator="in"/><feComposite in="SourceGraphic"/></filter></defs><g id="a"/><g id="b"><g id="c"><path class="o" d="M606.81,81.29l-233.34,134.72c.18,0,.35,0,.53,0,87.26,0,158,70.74,158,158v339.08c127.59-59.55,216-188.99,216-339.08,0-118.54-55.15-224.19-141.19-292.71Z"/><g class="q"><path class="n" d="M241.99,460.83c-16.42-24.92-25.99-54.75-25.99-86.83,0-71.02,46.86-131.1,111.35-151L592.1,70.15C530.71,26,455.39,0,374,0,184.71,0,28.27,140.62,3.44,323.1l238.55,137.73Z"/><path class="p" d="M374,532c-27.99,0-54.28-7.29-77.08-20.06l-.1,.17L1.39,341.55c-.92,10.7-1.39,21.52-1.39,32.45,0,206.55,167.45,374,374,374,49.88,0,97.49-9.77,141-27.49V445.36c-26.07,51.41-79.42,86.64-141,86.64Z"/></g><g id="h"><path class="l" d="M184.94,116.32c5.98-2.74,12.96-3.42,19.3-1.54,6.1,1.73,11.5,5.71,15.03,10.96,2.93,4.29,4.5,9.42,4.67,14.6,1.86,2.96,3.88,5.81,5.77,8.74,.45,.68,.32,1.59-.14,2.24-1.38,2.2-3.65,3.78-6.12,4.51-1.38,4.08-2.73,8.17-4.09,12.26-1.07,3.59-5.29,5.75-8.83,4.47-2.43-.81-4.85-1.61-7.27-2.44-.62,2.29-1.12,4.61-1.76,6.89-.23,.85-1.11,1.38-1.97,1.3-7.32,0-14.65,0-21.97,0-1.26,.13-2.34-1.2-1.96-2.4,1.22-4.67,2.5-9.32,3.72-13.99-4.16-3.3-7.27-7.9-8.7-13.03-1.94-6.75-1.2-14.21,1.96-20.47,2.6-5.27,7.01-9.64,12.36-12.1m22.29,13.7c-2.56,1.05-5.12,2.12-7.67,3.2-.67,.27-1.09,.97-1.11,1.67-.04,1,.83,1.93,1.83,1.92,.9-.01,1.68-.55,2.5-.85-1.78,2.7-3.6,5.38-5.38,8.09-2.16-2.13-4.28-4.29-6.43-6.41-.5-.54-1.32-.81-2.01-.5-.64,.18-.99,.77-1.34,1.29-1.89,2.88-3.84,5.73-5.73,8.61-.62,.9-.21,2.25,.77,2.7,.85,.47,1.93,.05,2.44-.71,1.58-2.39,3.17-4.77,4.77-7.14,2.16,2.17,4.33,4.32,6.48,6.49,.82,.83,2.34,.67,2.93-.34,2.21-3.33,4.46-6.63,6.63-9.98,.11,1.08-.28,2.39,.58,3.24,1.01,1.06,3.11,.4,3.19-1.11,.07-2.76,.01-5.53,.03-8.3,.1-1.26-1.31-2.32-2.49-1.86Z"/></g><g id="i"><path class="l" d="M640.64,307.05c2.15-1.39,4.86-1.87,7.37-1.36,1.97,.39,3.8,1.4,5.18,2.86,.75,.78,1.35,1.7,1.84,2.66,6.93,12.75,13.87,25.49,20.8,38.24,.99,1.83,2.01,3.65,2.98,5.5,.74,1.37,1.11,2.92,1.16,4.47v.38c-.1,2.22-.91,4.41-2.35,6.11-1.64,1.99-4.1,3.29-6.67,3.51-1.15,.1-2.3,.05-3.45,.06-15.13,0-30.25,0-45.38,0-2.47,.02-4.95-.87-6.77-2.56-2.01-1.79-3.19-4.42-3.31-7.1v-.39c.04-.98,.17-1.96,.49-2.89,.35-1.12,.96-2.12,1.5-3.15,7.76-14.27,15.52-28.53,23.28-42.8,.82-1.42,1.94-2.68,3.33-3.55m4.23,14.86c-1.68,.48-2.89,2.16-2.84,3.91,0,6.54,0,13.09,0,19.63-.04,1.37,.64,2.73,1.8,3.48,1.31,.88,3.14,.86,4.43-.05,1.11-.75,1.76-2.09,1.72-3.43,0-6.5,0-13.01,0-19.51,.01-.96-.26-1.94-.87-2.69-.97-1.25-2.73-1.81-4.24-1.33m0,31.84c-.65,.19-1.24,.56-1.71,1.04-1.26,1.26-1.48,3.39-.5,4.88,.96,1.57,3.09,2.28,4.8,1.57,1.91-.7,3.01-3.01,2.32-4.93-.6-1.99-2.93-3.21-4.91-2.56Z"/></g><g id="j"><path class="m" d="M263.29,562.41c2.94-.71,6.09-.5,8.9,.62,4.51,1.74,8.01,5.85,9,10.58,.68,3.09,.32,6.39-.98,9.26-1.63,3.6-4.77,6.5-8.5,7.8-4.21,1.53-9.12,.97-12.88-1.47-3.16-1.99-5.5-5.23-6.39-8.85-.88-3.46-.44-7.24,1.21-10.41,1.93-3.74,5.54-6.57,9.64-7.55Z"/><path class="m" d="M318.11,562.34c2.97-.65,6.14-.35,8.94,.85,4.07,1.7,7.24,5.36,8.43,9.61,.91,3.3,.66,6.93-.77,10.05-1.58,3.54-4.61,6.4-8.25,7.74-4.06,1.55-8.82,1.19-12.56-1.02-3.29-1.86-5.79-5.05-6.83-8.68-1.19-4.04-.54-8.6,1.77-12.12,2.07-3.27,5.5-5.62,9.27-6.43Z"/><path class="m" d="M252.02,599.25c-.26-1.49,1.1-2.93,2.6-2.79,26.25,0,52.51,0,78.76,0,1.62-.17,3,1.51,2.55,3.07-.26,1.14-1.4,1.91-2.55,1.85-11.67,.02-23.35-.03-35.03,.02,4.18,7,8.42,13.96,12.56,20.99,.96,1.51-.39,3.72-2.17,3.59-9.84,.02-19.68,.01-29.53,0-1.31,.06-2.48-1.15-2.46-2.45-.04-.86,.54-1.56,.94-2.26,3.98-6.62,7.94-13.26,11.94-19.87-11.68-.07-23.37,0-35.05-.03-1.23,.05-2.47-.85-2.58-2.13Z"/></g><g><path class="l" d="M99.74,217.17v-14.55h9.63v2.54h-6.56v3.47h5.92v2.54h-5.92v6.01h-3.08Z"/><path class="l" d="M113.44,217.17v-14.55h9.8v2.54h-6.73v3.47h6.22v2.54h-6.22v3.47h6.75v2.54h-9.83Z"/><path class="l" d="M133.51,202.63h3.04v10.14c0,.94-.21,1.75-.63,2.44-.42,.69-1,1.22-1.74,1.6-.74,.37-1.61,.56-2.59,.56-.88,0-1.67-.16-2.38-.47-.71-.31-1.28-.78-1.69-1.42-.42-.64-.62-1.44-.62-2.4h3.06c0,.38,.09,.71,.24,.98,.15,.27,.36,.48,.62,.62s.57,.22,.93,.22c.38,0,.7-.08,.96-.25,.26-.16,.46-.4,.6-.72,.14-.32,.21-.71,.21-1.17v-10.14Z"/><path class="l" d="M141.09,217.17v-14.55h3.08v12.01h6.24v2.54h-9.31Z"/><path class="l" d="M167.24,209.9c0,1.59-.3,2.94-.9,4.05-.6,1.11-1.41,1.96-2.44,2.55-1.03,.58-2.19,.88-3.47,.88s-2.45-.29-3.48-.88-1.84-1.44-2.44-2.55-.9-2.46-.9-4.04,.3-2.94,.9-4.05c.6-1.11,1.41-1.96,2.44-2.55s2.19-.88,3.48-.88,2.44,.29,3.47,.88,1.84,1.43,2.44,2.55c.6,1.11,.9,2.46,.9,4.05Zm-3.12,0c0-1.03-.15-1.89-.46-2.6s-.73-1.24-1.29-1.61c-.55-.36-1.2-.55-1.95-.55s-1.39,.18-1.95,.55c-.55,.37-.98,.9-1.29,1.61-.31,.71-.46,1.57-.46,2.6s.15,1.89,.46,2.6c.31,.71,.74,1.24,1.29,1.6,.55,.37,1.2,.55,1.95,.55s1.39-.18,1.95-.55c.55-.36,.98-.9,1.29-1.6,.31-.71,.46-1.57,.46-2.6Zm-6.8-8.54l1.9-2.94h2.54l-2.32,2.94h-2.12Zm3.64,0l2.25-2.94h2.56l-2.67,2.94h-2.14Z"/><path class="l" d="M179.4,206.81c-.06-.57-.3-1.02-.73-1.33-.43-.32-1.02-.48-1.75-.48-.5,0-.93,.07-1.27,.21-.35,.14-.61,.33-.79,.58-.18,.25-.27,.53-.27,.84,0,.26,.05,.49,.17,.68,.12,.19,.29,.36,.5,.5s.46,.26,.74,.36c.28,.1,.58,.19,.89,.26l1.31,.31c.63,.14,1.22,.33,1.75,.57,.53,.24,.99,.53,1.38,.87s.69,.75,.91,1.22c.22,.47,.33,1.01,.33,1.61,0,.89-.23,1.66-.68,2.31-.45,.65-1.09,1.16-1.93,1.51s-1.85,.54-3.04,.54-2.2-.18-3.06-.54c-.87-.36-1.55-.89-2.03-1.6s-.74-1.58-.76-2.63h2.98c.03,.49,.17,.89,.42,1.22s.58,.57,1,.73,.89,.25,1.42,.25,.97-.08,1.36-.23c.39-.15,.69-.36,.9-.63,.21-.27,.32-.58,.32-.93,0-.33-.1-.6-.29-.82-.19-.22-.47-.41-.84-.57-.37-.16-.82-.3-1.35-.43l-1.58-.4c-1.23-.3-2.19-.76-2.9-1.4-.71-.63-1.06-1.49-1.06-2.56,0-.88,.23-1.65,.71-2.31,.48-.66,1.13-1.17,1.96-1.54,.83-.37,1.78-.55,2.84-.55s2.02,.18,2.83,.55,1.44,.88,1.89,1.54,.68,1.42,.7,2.29h-2.95Z"/><path class="l" d="M186.61,217.17v-14.55h9.8v2.54h-6.73v3.47h6.22v2.54h-6.22v3.47h6.75v2.54h-9.83Zm3.84-15.95l1.51-3.23h2.8l-2.17,3.23h-2.14Z"/><path class="l" d="M208.75,206.81c-.06-.57-.3-1.02-.73-1.33-.43-.32-1.02-.48-1.75-.48-.5,0-.93,.07-1.27,.21-.35,.14-.61,.33-.79,.58-.18,.25-.27,.53-.27,.84,0,.26,.05,.49,.17,.68,.12,.19,.29,.36,.5,.5s.46,.26,.74,.36c.28,.1,.58,.19,.89,.26l1.31,.31c.63,.14,1.22,.33,1.75,.57,.53,.24,.99,.53,1.38,.87s.69,.75,.91,1.22c.22,.47,.33,1.01,.33,1.61,0,.89-.23,1.66-.68,2.31-.45,.65-1.09,1.16-1.93,1.51s-1.85,.54-3.04,.54-2.2-.18-3.06-.54c-.87-.36-1.55-.89-2.03-1.6s-.74-1.58-.76-2.63h2.98c.03,.49,.17,.89,.42,1.22s.58,.57,1,.73,.89,.25,1.42,.25,.97-.08,1.36-.23c.39-.15,.69-.36,.9-.63,.21-.27,.32-.58,.32-.93,0-.33-.1-.6-.29-.82-.19-.22-.47-.41-.84-.57-.37-.16-.82-.3-1.35-.43l-1.58-.4c-1.23-.3-2.19-.76-2.9-1.4-.71-.63-1.06-1.49-1.06-2.56,0-.88,.23-1.65,.71-2.31,.48-.66,1.13-1.17,1.96-1.54,.83-.37,1.78-.55,2.84-.55s2.02,.18,2.83,.55,1.44,.88,1.89,1.54,.68,1.42,.7,2.29h-2.95Z"/><path class="l" d="M219.03,202.63v14.55h-3.08v-14.55h3.08Z"/><path class="l" d="M230.05,217.17v-1.83l7.26-10.18h-7.27v-2.54h11.14v1.83l-7.27,10.18h7.28v2.54h-11.14Z"/><path class="l" d="M258.23,209.9c0,1.59-.3,2.94-.9,4.05-.6,1.11-1.41,1.96-2.44,2.55-1.03,.58-2.19,.88-3.47,.88s-2.45-.29-3.48-.88-1.84-1.44-2.44-2.55-.9-2.46-.9-4.04,.3-2.94,.9-4.05c.6-1.11,1.41-1.96,2.44-2.55s2.19-.88,3.48-.88,2.44,.29,3.47,.88,1.84,1.43,2.44,2.55c.6,1.11,.9,2.46,.9,4.05Zm-3.12,0c0-1.03-.15-1.89-.46-2.6s-.73-1.24-1.29-1.61c-.55-.36-1.2-.55-1.95-.55s-1.39,.18-1.95,.55c-.55,.37-.98,.9-1.29,1.61-.31,.71-.46,1.57-.46,2.6s.15,1.89,.46,2.6c.31,.71,.74,1.24,1.29,1.6,.55,.37,1.2,.55,1.95,.55s1.39-.18,1.95-.55c.55-.36,.98-.9,1.29-1.6,.31-.71,.46-1.57,.46-2.6Zm-4.78-8.68l1.51-3.23h2.8l-2.17,3.23h-2.14Z"/><path class="l" d="M274.66,202.63v14.55h-2.66l-6.33-9.16h-.11v9.16h-3.08v-14.55h2.7l6.28,9.15h.13v-9.15h3.06Z"/><path class="l" d="M281.71,217.17h-3.3l5.02-14.55h3.96l5.01,14.55h-3.3l-3.64-11.22h-.11l-3.65,11.22Zm-.21-5.72h7.78v2.4h-7.78v-2.4Z"/></g><g><path class="l" d="M564.37,387.63l3.52,11.05h.13l3.52-11.05h3.41l-5.01,14.55h-3.96l-5.02-14.55h3.42Z"/><path class="l" d="M578.7,402.17v-14.55h9.8v2.54h-6.73v3.47h6.22v2.54h-6.22v3.47h6.75v2.54h-9.83Z"/><path class="l" d="M600.84,391.81c-.06-.57-.3-1.02-.73-1.33-.43-.32-1.02-.48-1.75-.48-.5,0-.93,.07-1.27,.21s-.61,.33-.79,.58c-.18,.25-.27,.53-.27,.84,0,.26,.04,.49,.17,.68s.29,.36,.5,.5,.46,.26,.74,.36c.28,.1,.58,.19,.89,.26l1.31,.31c.63,.14,1.22,.33,1.75,.57,.53,.24,.99,.53,1.38,.87s.69,.75,.91,1.22,.33,1.01,.33,1.61c0,.89-.23,1.66-.68,2.31-.45,.65-1.09,1.16-1.93,1.51-.84,.36-1.85,.54-3.04,.54s-2.2-.18-3.06-.54c-.87-.36-1.55-.89-2.03-1.6-.49-.71-.74-1.58-.76-2.63h2.98c.03,.49,.17,.89,.42,1.22,.25,.32,.58,.57,1,.73s.89,.25,1.42,.25,.97-.08,1.36-.23c.39-.15,.69-.36,.9-.63s.32-.58,.32-.93c0-.33-.1-.6-.29-.82-.19-.22-.47-.41-.84-.57s-.82-.3-1.35-.43l-1.58-.4c-1.23-.3-2.19-.76-2.9-1.4-.71-.63-1.06-1.49-1.06-2.56,0-.88,.23-1.65,.71-2.31,.48-.66,1.13-1.17,1.96-1.54s1.78-.55,2.84-.55,2.02,.18,2.83,.55,1.44,.88,1.89,1.54,.68,1.42,.7,2.29h-2.95Z"/><path class="l" d="M607.89,402.17v-1.83l7.26-10.18h-7.27v-2.54h11.14v1.83l-7.27,10.18h7.28v2.54h-11.14Z"/><path class="l" d="M623.38,402.17v-14.55h9.8v2.54h-6.73v3.47h6.22v2.54h-6.22v3.47h6.75v2.54h-9.83Zm3.84-15.95l1.51-3.23h2.8l-2.17,3.23h-2.14Z"/><path class="l" d="M637.64,402.17v-14.55h3.07v12.01h6.24v2.54h-9.31Z"/><path class="l" d="M648.27,387.63h3.44l3.32,6.26h.14l3.32-6.26h3.44l-5.3,9.4v5.14h-3.05v-5.14l-5.3-9.4Z"/><path class="l" d="M672.09,402.17v-1.83l7.26-10.18h-7.27v-2.54h11.14v1.83l-7.27,10.18h7.28v2.54h-11.14Z"/><path class="l" d="M700.27,394.9c0,1.59-.3,2.94-.9,4.05-.6,1.11-1.41,1.96-2.44,2.55-1.03,.58-2.19,.88-3.47,.88s-2.45-.29-3.48-.88-1.84-1.44-2.44-2.55c-.6-1.11-.9-2.46-.9-4.04s.3-2.94,.9-4.05c.6-1.11,1.41-1.96,2.44-2.55s2.19-.88,3.48-.88,2.44,.29,3.47,.88c1.03,.58,1.84,1.43,2.44,2.55,.6,1.11,.9,2.46,.9,4.05Zm-3.12,0c0-1.03-.15-1.89-.46-2.6-.3-.71-.73-1.24-1.29-1.61-.55-.36-1.2-.55-1.95-.55s-1.39,.18-1.95,.55c-.55,.37-.98,.9-1.29,1.61s-.46,1.57-.46,2.6,.15,1.89,.46,2.6c.31,.71,.74,1.24,1.29,1.6,.55,.37,1.2,.55,1.95,.55s1.39-.18,1.95-.55c.55-.36,.98-.9,1.29-1.6,.31-.71,.46-1.57,.46-2.6Zm-4.78-8.68l1.51-3.23h2.8l-2.17,3.23h-2.14Z"/><path class="l" d="M716.71,387.63v14.55h-2.66l-6.33-9.16h-.11v9.16h-3.07v-14.55h2.7l6.28,9.15h.13v-9.15h3.06Z"/><path class="l" d="M723.76,402.17h-3.3l5.02-14.55h3.96l5.01,14.55h-3.3l-3.64-11.22h-.11l-3.65,11.22Zm-.21-5.72h7.79v2.4h-7.79v-2.4Z"/></g><g><path class="m" d="M224.11,652.9c0,1.59-.3,2.94-.9,4.05-.6,1.11-1.41,1.96-2.44,2.55-1.03,.58-2.19,.88-3.47,.88s-2.45-.29-3.48-.88-1.84-1.44-2.44-2.55-.9-2.46-.9-4.04,.3-2.94,.9-4.05c.6-1.11,1.41-1.96,2.44-2.55s2.19-.88,3.48-.88,2.44,.29,3.47,.88,1.84,1.43,2.44,2.55c.6,1.11,.9,2.46,.9,4.05Zm-3.12,0c0-1.03-.15-1.89-.46-2.6s-.73-1.24-1.29-1.61c-.55-.36-1.2-.55-1.95-.55s-1.39,.18-1.95,.55c-.55,.37-.98,.9-1.29,1.61-.31,.71-.46,1.57-.46,2.6s.15,1.89,.46,2.6c.31,.71,.74,1.24,1.29,1.6,.55,.37,1.2,.55,1.95,.55s1.39-.18,1.95-.55c.55-.36,.98-.9,1.29-1.6,.31-.71,.46-1.57,.46-2.6Z"/><path class="m" d="M228.38,660.17v-14.55h5.74c1.1,0,2.04,.21,2.82,.63,.78,.42,1.37,1,1.78,1.74s.61,1.59,.61,2.56-.21,1.82-.62,2.56-1.02,1.31-1.81,1.73c-.79,.41-1.74,.62-2.86,.62h-3.66v-2.46h3.16c.59,0,1.08-.1,1.47-.31,.39-.21,.67-.49,.87-.86s.29-.79,.29-1.27-.1-.91-.29-1.27c-.19-.36-.48-.64-.87-.85s-.88-.3-1.48-.3h-2.07v12.03h-3.08Z"/><path class="m" d="M242.78,648.16v-2.54h11.95v2.54h-4.45v12.01h-3.04v-12.01h-4.45Z"/><path class="m" d="M261.78,645.63v14.55h-3.08v-14.55h3.08Z"/><path class="m" d="M266.31,645.63h3.79l4.01,9.77h.17l4.01-9.77h3.79v14.55h-2.98v-9.47h-.12l-3.76,9.4h-2.03l-3.76-9.43h-.12v9.5h-2.98v-14.55Z"/><path class="m" d="M289.12,660.17h-3.3l5.02-14.55h3.96l5.01,14.55h-3.3l-3.64-11.22h-.11l-3.65,11.22Zm-.21-5.72h7.78v2.4h-7.78v-2.4Z"/><path class="m" d="M310.05,660.17v-1.83l7.26-10.18h-7.27v-2.54h11.14v1.83l-7.27,10.18h7.28v2.54h-11.14Z"/><path class="m" d="M338.23,652.9c0,1.59-.3,2.94-.9,4.05-.6,1.11-1.41,1.96-2.44,2.55-1.03,.58-2.19,.88-3.47,.88s-2.45-.29-3.48-.88-1.84-1.44-2.44-2.55-.9-2.46-.9-4.04,.3-2.94,.9-4.05c.6-1.11,1.41-1.96,2.44-2.55s2.19-.88,3.48-.88,2.44,.29,3.47,.88,1.84,1.43,2.44,2.55c.6,1.11,.9,2.46,.9,4.05Zm-3.12,0c0-1.03-.15-1.89-.46-2.6s-.73-1.24-1.29-1.61c-.55-.36-1.2-.55-1.95-.55s-1.39,.18-1.95,.55c-.55,.37-.98,.9-1.29,1.61-.31,.71-.46,1.57-.46,2.6s.15,1.89,.46,2.6c.31,.71,.74,1.24,1.29,1.6,.55,.37,1.2,.55,1.95,.55s1.39-.18,1.95-.55c.55-.36,.98-.9,1.29-1.6,.31-.71,.46-1.57,.46-2.6Zm-4.78-8.68l1.51-3.23h2.8l-2.17,3.23h-2.14Z"/><path class="m" d="M354.66,645.63v14.55h-2.66l-6.33-9.16h-.11v9.16h-3.08v-14.55h2.7l6.28,9.15h.13v-9.15h3.06Z"/><path class="m" d="M361.71,660.17h-3.3l5.02-14.55h3.96l5.01,14.55h-3.3l-3.64-11.22h-.11l-3.65,11.22Zm-.21-5.72h7.78v2.4h-7.78v-2.4Z"/></g><g><path class="m" d="M341.17,437.9c0,1.6-.31,2.96-.92,4.07-.62,1.11-1.45,1.96-2.5,2.54-1.05,.58-2.22,.87-3.53,.87s-2.48-.29-3.53-.87-1.88-1.43-2.49-2.54-.92-2.46-.92-4.06,.31-2.96,.92-4.07c.61-1.11,1.44-1.96,2.49-2.54,1.05-.58,2.22-.87,3.53-.87s2.48,.29,3.53,.87c1.05,.58,1.88,1.42,2.5,2.54,.62,1.11,.92,2.47,.92,4.07Zm-3.59,0c0-.95-.13-1.75-.4-2.4-.27-.65-.65-1.15-1.15-1.48-.5-.34-1.1-.5-1.8-.5s-1.29,.17-1.8,.5c-.5,.34-.89,.83-1.15,1.48-.27,.65-.4,1.45-.4,2.4s.13,1.75,.4,2.4,.65,1.15,1.15,1.48c.5,.34,1.1,.5,1.8,.5s1.3-.17,1.8-.5,.88-.83,1.15-1.48,.4-1.45,.4-2.4Z"/><path class="m" d="M345.21,445.17v-14.55h6.01c1.09,0,2.03,.21,2.82,.64s1.4,1.01,1.84,1.77c.43,.76,.65,1.63,.65,2.63s-.22,1.88-.66,2.63c-.44,.75-1.06,1.33-1.87,1.74s-1.77,.62-2.88,.62h-3.71v-2.77h3.05c.53,0,.97-.09,1.33-.28,.36-.19,.63-.44,.81-.78,.19-.33,.28-.72,.28-1.17s-.09-.84-.28-1.17c-.18-.33-.46-.58-.82-.76-.36-.18-.8-.27-1.33-.27h-1.73v11.71h-3.52Z"/><path class="m" d="M359.78,433.48v-2.86h12.29v2.86h-4.41v11.69h-3.47v-11.69h-4.42Z"/><path class="m" d="M379.31,430.63v14.55h-3.52v-14.55h3.52Z"/><path class="m" d="M383.52,430.63h4.35l3.69,9.01h.17l3.69-9.01h4.35v14.55h-3.42v-8.93h-.12l-3.49,8.84h-2.19l-3.49-8.89h-.12v8.98h-3.42v-14.55Z"/><path class="m" d="M407.13,445.17h-3.78l4.91-14.55h4.68l4.91,14.55h-3.78l-3.42-10.88h-.11l-3.41,10.88Zm-.5-5.72h7.9v2.67h-7.9v-2.67Z"/><path class="m" d="M301.41,469.17v-14.55h6.01c1.09,0,2.03,.21,2.82,.64s1.4,1.01,1.84,1.77c.43,.76,.65,1.63,.65,2.63s-.22,1.88-.66,2.63c-.44,.75-1.06,1.33-1.87,1.74s-1.77,.62-2.88,.62h-3.71v-2.77h3.05c.53,0,.97-.09,1.33-.28,.36-.19,.63-.44,.81-.78,.19-.33,.28-.72,.28-1.17s-.09-.84-.28-1.17c-.18-.33-.46-.58-.82-.76-.36-.18-.8-.27-1.33-.27h-1.73v11.71h-3.52Z"/><path class="m" d="M316.45,469.17v-14.55h6.01c1.09,0,2.03,.2,2.82,.59s1.4,.95,1.84,1.68c.43,.73,.65,1.59,.65,2.58s-.22,1.87-.66,2.57-1.07,1.24-1.88,1.6-1.77,.55-2.88,.55h-3.8v-2.77h3.15c.53,0,.97-.07,1.33-.21s.63-.35,.81-.64c.19-.29,.28-.65,.28-1.1s-.09-.82-.28-1.12c-.18-.3-.46-.52-.82-.67-.36-.15-.8-.22-1.33-.22h-1.73v11.71h-3.52Zm8.19-6.65l3.62,6.65h-3.84l-3.55-6.65h3.76Z"/><path class="m" d="M345.42,461.9c0,1.6-.31,2.96-.92,4.07-.62,1.11-1.45,1.96-2.5,2.54-1.05,.58-2.22,.87-3.53,.87s-2.48-.29-3.53-.87-1.88-1.43-2.49-2.54-.92-2.46-.92-4.06,.31-2.96,.92-4.07c.61-1.11,1.44-1.96,2.49-2.54,1.05-.58,2.22-.87,3.53-.87s2.48,.29,3.53,.87c1.05,.58,1.88,1.42,2.5,2.54,.62,1.11,.92,2.47,.92,4.07Zm-3.59,0c0-.95-.13-1.75-.4-2.4-.27-.65-.65-1.15-1.15-1.48-.5-.34-1.1-.5-1.8-.5s-1.29,.17-1.8,.5c-.5,.34-.89,.83-1.15,1.48-.27,.65-.4,1.45-.4,2.4s.13,1.75,.4,2.4,.65,1.15,1.15,1.48c.5,.34,1.1,.5,1.8,.5s1.3-.17,1.8-.5,.88-.83,1.15-1.48,.4-1.45,.4-2.4Z"/><path class="m" d="M359.01,459.38c-.08-.3-.2-.56-.36-.79s-.35-.42-.58-.59c-.23-.16-.49-.28-.78-.37-.29-.08-.62-.12-.97-.12-.71,0-1.31,.17-1.83,.51-.51,.34-.91,.84-1.19,1.49-.28,.65-.42,1.44-.42,2.37s.13,1.73,.4,2.39,.66,1.16,1.17,1.5,1.13,.52,1.86,.52c.64,0,1.19-.11,1.64-.32,.45-.21,.79-.51,1.02-.9,.23-.39,.35-.85,.35-1.37l.65,.08h-3.54v-2.56h6.27v1.92c0,1.3-.28,2.42-.83,3.35-.55,.93-1.31,1.64-2.27,2.14-.96,.5-2.07,.75-3.32,.75-1.39,0-2.61-.3-3.66-.9s-1.87-1.46-2.46-2.57c-.59-1.12-.88-2.44-.88-3.97,0-1.19,.18-2.25,.53-3.18,.36-.93,.85-1.71,1.49-2.35,.64-.64,1.38-1.13,2.22-1.46s1.75-.5,2.72-.5c.84,0,1.63,.12,2.35,.36,.73,.24,1.37,.58,1.93,1.02s1.02,.96,1.37,1.57c.35,.61,.57,1.27,.65,2h-3.56Z"/><path class="m" d="M366.8,469.17v-14.55h6.01c1.09,0,2.03,.2,2.82,.59,.79,.39,1.41,.95,1.84,1.68,.43,.73,.65,1.59,.65,2.58s-.22,1.87-.66,2.57-1.07,1.24-1.88,1.6-1.77,.55-2.88,.55h-3.8v-2.77h3.15c.53,0,.97-.07,1.33-.21s.63-.35,.81-.64c.19-.29,.28-.65,.28-1.1s-.09-.82-.28-1.12c-.18-.3-.46-.52-.82-.67-.36-.15-.8-.22-1.33-.22h-1.73v11.71h-3.52Zm8.19-6.65l3.62,6.65h-3.84l-3.55-6.65h3.76Z"/><path class="m" d="M385.18,469.17h-3.78l4.91-14.55h4.68l4.91,14.55h-3.78l-3.42-10.88h-.11l-3.41,10.88Zm-.5-5.72h7.9v2.67h-7.9v-2.67Z"/><path class="m" d="M399.47,454.63h4.35l3.69,9.01h.17l3.69-9.01h4.35v14.55h-3.42v-8.93h-.12l-3.49,8.84h-2.19l-3.49-8.89h-.12v8.98h-3.42v-14.55Z"/><path class="m" d="M433.66,461.9c0,1.6-.31,2.96-.92,4.07s-1.45,1.96-2.5,2.54c-1.05,.58-2.22,.87-3.53,.87s-2.48-.29-3.53-.87-1.88-1.43-2.49-2.54-.92-2.46-.92-4.06,.31-2.96,.92-4.07c.61-1.11,1.44-1.96,2.49-2.54,1.05-.58,2.22-.87,3.53-.87s2.48,.29,3.53,.87c1.05,.58,1.88,1.42,2.5,2.54,.62,1.11,.92,2.47,.92,4.07Zm-3.59,0c0-.95-.13-1.75-.4-2.4-.27-.65-.65-1.15-1.15-1.48-.5-.34-1.1-.5-1.8-.5s-1.29,.17-1.8,.5c-.5,.34-.89,.83-1.15,1.48-.27,.65-.4,1.45-.4,2.4s.13,1.75,.4,2.4,.65,1.15,1.15,1.48c.5,.34,1.1,.5,1.8,.5s1.3-.17,1.8-.5c.5-.34,.88-.83,1.15-1.48s.4-1.45,.4-2.4Z"/><path class="m" d="M437.71,469.17v-14.55h3.52v6.15h.19l4.81-6.15h4.14l-5.16,6.49,5.25,8.05h-4.2l-3.62-5.72-1.41,1.78v3.94h-3.52Z"/></g></g><g id="k"><g><path class="m" d="M375.35,411.61c-20.27,0-36.7-16.78-36.7-37.48s16.43-37.48,36.7-37.48c-15.2,0-27.53,16.78-27.53,37.48s12.32,37.48,27.53,37.48Z"/><path class="m" d="M412.05,374.13c0,20.7-16.43,37.48-36.7,37.48,15.2,0,27.53-16.78,27.53-37.48s-12.32-37.48-27.53-37.48c20.27,0,36.7,16.78,36.7,37.48Z"/><path class="m" d="M375.35,402.24c-15.2,0-27.53-12.59-27.53-28.11s12.32-28.11,27.53-28.11c-10.14,0-18.35,12.59-18.35,28.11s8.21,28.11,18.35,28.11Z"/><path class="m" d="M402.87,374.13c0,15.53-12.32,28.11-27.53,28.11,10.14,0,18.35-12.58,18.35-28.11s-8.21-28.11-18.35-28.11c15.2,0,27.53,12.58,27.53,28.11Z"/><path class="m" d="M366.17,374.13c0-10.35,4.11-18.74,9.18-18.74-10.14,0-18.35,8.39-18.35,18.74s8.22,18.74,18.35,18.74c-5.07,0-9.18-8.39-9.18-18.74Z"/><path class="m" d="M375.35,355.39c5.07,0,9.18,8.39,9.18,18.74s-4.11,18.74-9.18,18.74c10.14,0,18.35-8.39,18.35-18.74s-8.22-18.74-18.35-18.74Z"/></g></g></g></svg>