<svg width="411" height="34" viewBox="0 0 411 34" fill="none" xmlns="http://www.w3.org/2000/svg">
<g clip-path="url(#clip0_678_242)">
<path d="M70.103 2.59143H2.40637V31.486H70.103V2.59143Z" fill="#1994D2"/>
<path d="M59.7658 22.6167V16.1332C59.7658 15.6663 59.5978 15.3271 59.2628 15.1161C58.9275 14.9052 58.5093 14.7992 58.0088 14.7992C57.7637 14.7992 57.5297 14.8187 57.3058 14.8579C57.0821 14.8969 56.896 14.9437 56.7465 14.9995V22.6167H54.0475V13.8992C54.5267 13.7103 55.1176 13.552 55.8201 13.424C56.5235 13.2962 57.2845 13.2325 58.1045 13.2325C59.5205 13.2325 60.6015 13.4626 61.3473 13.9244C62.0925 14.3851 62.4653 15.1109 62.4653 16.0999V22.6167H59.7658Z" fill="white"/>
<path d="M35.8658 22.6167V13.348C36.7658 13.348 37.6807 13.3981 38.5655 13.5074V22.6167H35.8658Z" fill="white"/>
<path d="M38.7088 10.8987C38.7088 11.2317 38.5621 11.5184 38.2693 11.7572C37.9765 11.9959 37.6227 12.1153 37.2075 12.1153C36.7923 12.1153 36.4405 11.9959 36.1534 11.7572C35.8658 11.5184 35.7219 11.2317 35.7219 10.8987C35.7219 10.5652 35.8658 10.2789 36.1534 10.0399C36.4405 9.80082 36.7923 9.68182 37.2075 9.68182C37.6227 9.68182 37.9765 9.80082 38.2693 10.0399C38.5621 10.2789 38.7088 10.5652 38.7088 10.8987Z" fill="white"/>
<path d="M34.1915 15.0493C33.8184 14.9269 33.4219 14.8604 33.0014 14.8495C32.5804 14.8381 32.2372 14.894 31.971 15.0159V22.617H29.2717V13.8992C29.7722 13.688 30.3553 13.524 31.0204 13.4072C31.686 13.291 32.5032 13.2325 33.4726 13.2325C33.6855 13.2325 33.9091 13.2375 34.1434 13.2491C34.3776 13.2603 34.564 13.277 34.7027 13.299L34.1915 15.0493Z" fill="white"/>
<path d="M18.0189 17.7165C18.0189 19.2835 17.5768 20.5031 16.6929 21.3759C15.8089 22.2483 14.5367 22.6842 12.8752 22.6842C12.0237 22.6842 11.2967 22.6205 10.6953 22.4923C10.0932 22.3642 9.62223 22.2059 9.28174 22.017V9.36475H11.965V13.616C12.1992 13.5272 12.476 13.4466 12.7956 13.374C13.1151 13.3018 13.5039 13.2654 13.9613 13.2654C14.5576 13.2654 15.1066 13.374 15.6069 13.5909C16.1073 13.8075 16.536 14.1102 16.8927 14.499C17.2492 14.8885 17.5264 15.3547 17.7232 15.8998C17.9202 16.4434 18.0189 17.0496 18.0189 17.7165ZM15.271 17.8672C15.271 17.4223 15.234 17.0082 15.1593 16.6247C15.0852 16.2409 14.9627 15.9078 14.7923 15.6243C14.6217 15.3412 14.406 15.1218 14.1453 14.9664C13.8847 14.8107 13.5623 14.7327 13.1788 14.7327C12.6784 14.7327 12.2735 14.8054 11.965 14.9497V20.9671C12.0822 21.0225 12.2259 21.0669 12.396 21.1005C12.5666 21.1337 12.774 21.1502 13.0191 21.1502C13.7754 21.1502 14.3392 20.8504 14.7123 20.2507C15.0852 19.6506 15.271 18.8558 15.271 17.8672Z" fill="white"/>
<path d="M27.7949 22.6167C27.7949 22.6218 23.554 22.6815 23.1693 22.6815C22.5539 22.6815 21.9872 22.5772 21.4689 22.3691C20.9509 22.1607 20.5055 21.8646 20.1328 21.4815C19.7609 21.0989 19.4691 20.6334 19.2587 20.0871C19.0484 19.541 18.9427 18.9235 18.9427 18.2371C18.9427 17.4818 19.0508 16.7975 19.267 16.1833C19.4826 15.5695 19.809 15.0425 20.2461 14.6033C20.6836 14.1637 21.2288 13.8256 21.8823 13.5888C22.5349 13.3531 23.2989 13.2346 24.1733 13.2346C24.9397 13.2346 25.6472 13.2994 26.2947 13.4285C26.9426 13.5584 27.4384 13.6564 27.7949 13.8484V22.6167ZM25.0801 14.9414C24.9613 14.8843 24.816 14.8343 24.6428 14.7886C24.4704 14.7438 24.2595 14.7212 24.0114 14.7212C23.2449 14.7212 22.6728 15.009 22.2948 15.5831C21.917 16.1583 21.7278 16.9975 21.7278 18.1017C21.7278 20.1972 22.4677 21.2448 23.9463 21.2448C24.1628 21.2448 24.3729 21.2257 24.578 21.1853C24.7831 21.146 24.9507 21.092 25.0801 21.0253V14.9414Z" fill="white"/>
<path d="M46.4878 24.5533C49.9892 24.4657 52.76 21.4321 52.6764 17.7778C52.6471 16.5141 52.2806 15.3421 51.6692 14.3528C50.4518 14.3353 49.2271 14.7043 48.7704 14.8312C49.6078 15.5461 50.1519 16.6231 50.1797 17.8401C50.2183 19.526 49.2558 20.993 47.8587 21.6216C47.7097 21.2594 47.654 21.124 47.5079 20.7704C46.1415 21.6061 44.1532 22.5374 41.8738 22.6392C43.0556 23.8605 44.693 24.5977 46.4878 24.5533Z" fill="white"/>
<path d="M46.1831 11.3174C42.6812 11.4048 39.911 14.4383 39.9945 18.0924C40.0232 19.3561 40.3896 20.5285 41.0014 21.5174C42.219 21.5353 43.4435 21.1659 43.8994 21.0396C43.0631 20.3241 42.5185 19.2469 42.4912 18.0301C42.4523 16.3446 43.4149 14.8779 44.812 14.2487C44.9606 14.6114 45.0163 14.7468 45.1629 15.0999C46.5289 14.2642 48.5171 13.3329 50.7969 13.231C49.615 12.0107 47.9766 11.2726 46.1831 11.3174Z" fill="white"/>
<path d="M285.187 2.42859H256.514V31.3672H285.187V2.42859Z" fill="#2C6FB6"/>
<path fill-rule="evenodd" clip-rule="evenodd" d="M266.901 26.7882V16.4189L285.187 16.4356V19.2999L283.074 21.5792L285.187 23.8796V26.8048H281.813L280.019 24.8075L278.239 26.8124L266.901 26.7882Z" fill="white"/>
<path fill-rule="evenodd" clip-rule="evenodd" d="M268.122 25.6512V17.5599H274.92V19.4239H270.323V20.6894H274.811V22.5222H270.323V23.7649H274.92V25.6512H268.122Z" fill="#2C6FB6"/>
<path fill-rule="evenodd" clip-rule="evenodd" d="M274.886 25.6512L278.648 21.601L274.886 17.5599H277.798L280.096 20.1248L282.401 17.5599H285.187V17.6238L281.506 21.601L285.187 25.5363V25.6512H282.373L280.034 23.061L277.718 25.6512H274.886Z" fill="#2C6FB6"/>
<path fill-rule="evenodd" clip-rule="evenodd" d="M267.754 7.21533H272.162L273.71 10.7635V7.21533H279.152L280.09 9.87377L281.032 7.21533H285.187V17.5845H263.227L267.754 7.21533Z" fill="white"/>
<path fill-rule="evenodd" clip-rule="evenodd" d="M268.588 8.34204L265.031 16.4264H267.471L268.142 14.8075H271.779L272.449 16.4264H274.95L271.407 8.34204H268.588ZM268.894 12.993L269.961 10.4194L271.027 12.993H268.894Z" fill="#2C6FB6"/>
<path fill-rule="evenodd" clip-rule="evenodd" d="M274.916 16.4249V8.34058L278.346 8.3526L280.11 13.3225L281.887 8.34058H285.187V16.4249L283.063 16.4437V10.8907L281.059 16.4249H279.12L277.073 10.8719V16.4249H274.916Z" fill="#2C6FB6"/>
<path d="M150.508 31.1366V29.2508C150.508 28.5405 150.06 28.0629 149.338 28.0567C148.958 28.0506 148.566 28.1699 148.291 28.5908C148.086 28.2576 147.762 28.0567 147.307 28.0567C146.99 28.0567 146.679 28.151 146.436 28.5031V28.132H145.788V31.1366H146.442V29.4708C146.442 28.9492 146.728 28.6726 147.17 28.6726C147.6 28.6726 147.818 28.9553 147.818 29.4648V31.1366H148.472V29.4708C148.472 28.9492 148.771 28.6726 149.201 28.6726C149.643 28.6726 149.855 28.9553 149.855 29.4648V31.1366H150.508ZM154.158 29.6344V28.132H153.51V28.4965C153.304 28.2263 152.993 28.0567 152.57 28.0567C151.735 28.0567 151.081 28.7166 151.081 29.6344C151.081 30.5522 151.735 31.2116 152.57 31.2116C152.993 31.2116 153.304 31.0421 153.51 30.7715V31.1366H154.158V29.6344ZM151.748 29.6344C151.748 29.1062 152.09 28.6726 152.651 28.6726C153.186 28.6726 153.547 29.0874 153.547 29.6344C153.547 30.181 153.186 30.5959 152.651 30.5959C152.09 30.5959 151.748 30.1624 151.748 29.6344ZM168.016 28.0529C168.246 28.0529 168.459 28.0932 168.655 28.1737C168.851 28.2542 169.02 28.3652 169.163 28.5062C169.307 28.6478 169.418 28.8142 169.499 29.0065C169.58 29.1993 169.62 29.4081 169.62 29.6343C169.62 29.8599 169.58 30.069 169.499 30.2613C169.418 30.4543 169.307 30.6209 169.163 30.7622C169.02 30.903 168.851 31.0135 168.655 31.0938C168.459 31.1747 168.246 31.2149 168.016 31.2149C167.786 31.2149 167.573 31.1747 167.377 31.0938C167.181 31.0135 167.013 30.903 166.871 30.7622C166.729 30.6209 166.618 30.4543 166.537 30.2613C166.456 30.069 166.415 29.8599 166.415 29.6343C166.415 29.4081 166.456 29.1993 166.537 29.0065C166.618 28.8142 166.729 28.6478 166.871 28.5062C167.013 28.3652 167.181 28.2542 167.377 28.1737C167.573 28.0932 167.786 28.0529 168.016 28.0529ZM168.016 28.6712C167.884 28.6712 167.76 28.6947 167.646 28.7418C167.533 28.7889 167.434 28.8543 167.351 28.9392C167.268 29.0241 167.203 29.1257 167.155 29.2436C167.108 29.3619 167.084 29.4918 167.084 29.6344C167.084 29.7765 167.108 29.9066 167.155 30.0248C167.203 30.1428 167.268 30.2446 167.351 30.3289C167.434 30.4139 167.533 30.4795 167.646 30.5268C167.76 30.5737 167.884 30.5977 168.016 30.5977C168.149 30.5977 168.272 30.5737 168.386 30.5268C168.5 30.4795 168.599 30.4139 168.683 30.3289C168.767 30.2446 168.833 30.1428 168.88 30.0248C168.928 29.9066 168.952 29.7765 168.952 29.6344C168.952 29.4918 168.928 29.3619 168.88 29.2436C168.833 29.1257 168.767 29.0241 168.683 28.9392C168.599 28.8543 168.5 28.7889 168.386 28.7418C168.272 28.6948 168.149 28.6712 168.016 28.6712ZM157.682 29.6344C157.676 28.6978 157.103 28.0567 156.268 28.0567C155.397 28.0567 154.786 28.6978 154.786 29.6344C154.786 30.5896 155.421 31.2116 156.312 31.2116C156.76 31.2116 157.171 31.0983 157.533 30.7905L157.215 30.3068C156.966 30.5077 156.649 30.621 156.35 30.621C155.932 30.621 155.552 30.4261 155.459 29.8858H157.67C157.676 29.8039 157.682 29.7221 157.682 29.6344ZM155.465 29.3703C155.534 28.9366 155.795 28.6412 156.256 28.6412C156.673 28.6412 156.941 28.9052 157.009 29.3703H155.465ZM160.41 28.8987C160.229 28.7856 159.861 28.6412 159.481 28.6412C159.127 28.6412 158.915 28.773 158.915 28.993C158.915 29.1943 159.139 29.2507 159.419 29.2885L159.724 29.3323C160.372 29.4268 160.764 29.7033 160.764 30.2311C160.764 30.8034 160.266 31.2115 159.407 31.2115C158.921 31.2115 158.473 31.0862 158.118 30.8217L158.423 30.3129C158.641 30.4825 158.965 30.6272 159.413 30.6272C159.855 30.6272 160.092 30.4956 160.092 30.2625C160.092 30.0929 159.924 29.9989 159.569 29.9484L159.263 29.9042C158.597 29.81 158.236 29.5084 158.236 29.0183C158.236 28.4213 158.722 28.0566 159.475 28.0566C159.949 28.0566 160.378 28.1637 160.689 28.3707L160.41 28.8987ZM163.522 28.7292H162.463V30.0871C162.463 30.3886 162.569 30.5897 162.892 30.5897C163.061 30.5897 163.272 30.533 163.466 30.42L163.652 30.9793C163.447 31.1237 163.123 31.2118 162.843 31.2118C162.077 31.2118 161.809 30.7967 161.809 30.0992V28.7293H161.205V28.1321H161.809L161.809 27.221H162.463V28.1321H163.522V28.7292ZM165.763 28.0567C165.894 28.0567 166.081 28.0819 166.224 28.1385L166.024 28.7544C165.887 28.6978 165.75 28.6788 165.62 28.6788C165.196 28.6788 164.985 28.9553 164.985 29.452V31.1366H164.337V28.132H164.979V28.4965C165.147 28.2324 165.389 28.0567 165.763 28.0567ZM170.247 30.6988C170.288 30.6988 170.328 30.707 170.364 30.7223C170.401 30.7383 170.433 30.7592 170.46 30.7866C170.487 30.8138 170.509 30.845 170.525 30.8821C170.54 30.9184 170.548 30.9571 170.548 30.9976C170.548 31.0388 170.54 31.0776 170.525 31.1136C170.509 31.15 170.487 31.1814 170.46 31.2082C170.433 31.2354 170.401 31.2568 170.364 31.2727C170.328 31.2887 170.288 31.2968 170.247 31.2968C170.204 31.2968 170.164 31.2887 170.127 31.2727C170.09 31.2568 170.058 31.2353 170.031 31.2082C170.004 31.1813 169.983 31.15 169.967 31.1136C169.951 31.0776 169.943 31.0388 169.943 30.9976C169.943 30.9571 169.951 30.9184 169.967 30.8821C169.983 30.845 170.004 30.8137 170.031 30.7866C170.058 30.7591 170.09 30.7383 170.127 30.7223C170.164 30.7071 170.204 30.6988 170.247 30.6988ZM170.247 31.2313C170.279 31.2313 170.309 31.225 170.336 31.2129C170.364 31.2007 170.388 31.1841 170.409 31.1632C170.43 31.1423 170.446 31.1172 170.458 31.0886C170.47 31.0606 170.476 31.0303 170.476 30.9978C170.476 30.9657 170.469 30.9356 170.458 30.9076C170.446 30.8792 170.43 30.8539 170.409 30.8331C170.388 30.8121 170.364 30.7955 170.336 30.7838C170.308 30.7716 170.279 30.7661 170.247 30.7661C170.214 30.7661 170.184 30.7717 170.155 30.7838C170.127 30.7956 170.103 30.8121 170.082 30.8331C170.061 30.8539 170.045 30.8792 170.033 30.9076C170.021 30.9356 170.015 30.9657 170.015 30.9978C170.015 31.0303 170.021 31.0606 170.033 31.0886C170.045 31.1172 170.061 31.1423 170.082 31.1632C170.103 31.1841 170.127 31.2008 170.155 31.2129C170.184 31.225 170.214 31.2313 170.247 31.2313ZM170.264 30.8582C170.3 30.8582 170.327 30.8662 170.346 30.8822C170.365 30.8976 170.375 30.9189 170.375 30.9467C170.375 30.9694 170.367 30.9887 170.352 31.0031C170.337 31.0187 170.315 31.0278 170.287 31.031L170.377 31.1362H170.306L170.223 31.0317H170.196V31.1362H170.138V30.8582H170.264ZM170.196 30.9098V30.9843H170.263C170.279 30.9843 170.291 30.9812 170.301 30.9751C170.309 30.9689 170.314 30.9596 170.314 30.9468C170.314 30.9345 170.309 30.9252 170.301 30.919C170.291 30.913 170.279 30.9099 170.263 30.9099H170.196V30.9098Z" fill="#231F20"/>
<path d="M162.601 5.20282H152.778V23.0174H162.601V5.20282Z" fill="#7773B4"/>
<path d="M153.402 14.1101C153.402 10.4959 155.079 7.27732 157.689 5.20284C155.78 3.68583 153.371 2.78058 150.752 2.78058C144.553 2.78058 139.527 7.85289 139.527 14.1101C139.527 20.3671 144.553 25.4398 150.752 25.4398C153.371 25.4398 155.78 24.5344 157.689 23.0175C155.079 20.9428 153.402 17.7243 153.402 14.1101Z" fill="#E91D25"/>
<path d="M174.781 21.1306V20.766H174.926V20.6918H174.556V20.766H174.701V21.1306H174.781ZM175.501 21.1306V20.6909H175.388L175.257 20.9932L175.126 20.6909H175.012V21.1306H175.092V20.7987L175.215 21.0848H175.298L175.421 20.798V21.1306H175.501Z" fill="#119FDA"/>
<path d="M175.852 14.1101C175.852 20.3671 170.826 25.4398 164.627 25.4398C162.008 25.4398 159.599 24.5344 157.689 23.0175C160.3 20.9428 161.977 17.7243 161.977 14.1102C161.977 10.496 160.3 7.27744 157.689 5.20296C159.599 3.68595 162.008 2.7807 164.627 2.7807C170.826 2.78058 175.852 7.85289 175.852 14.1101Z" fill="#119FDA"/>
<path d="M111.142 5.75818H98.8052V28.1327H111.142V5.75818Z" fill="#F16522"/>
<path d="M99.5886 16.9454C99.5886 12.4062 101.694 8.36352 104.974 5.75803C102.575 3.85269 99.5495 2.71576 96.2604 2.71576C88.4741 2.71576 82.1622 9.08651 82.1622 16.9454C82.1622 24.804 88.4741 31.175 96.2604 31.175C99.5495 31.175 102.575 30.0382 104.974 28.1326C101.694 25.5272 99.5886 21.4846 99.5886 16.9454Z" fill="#E41B24"/>
<path d="M127.785 16.9454C127.785 24.804 121.473 31.175 113.687 31.175C110.398 31.175 107.372 30.0382 104.974 28.1326C108.253 25.5271 110.359 21.4845 110.359 16.9454C110.359 12.4062 108.253 8.36352 104.974 5.75803C107.372 3.85269 110.398 2.71576 113.687 2.71576C121.473 2.71576 127.785 9.08651 127.785 16.9454Z" fill="#F89E1C"/>
<path d="M126.44 25.7629V25.3049H126.623V25.2115H126.157V25.3049H126.34V25.7629H126.44ZM127.345 25.7629V25.2105H127.202L127.038 25.5905L126.873 25.2105H126.73V25.7629H126.831V25.3463L126.985 25.7055H127.09L127.244 25.3453V25.7628L127.345 25.7629Z" fill="white"/>
<path d="M209.283 8.30594L201.828 26.2558H196.965L193.296 11.9306C193.073 11.0485 192.88 10.7252 192.202 10.3536C191.097 9.74803 189.27 9.17974 187.664 8.82723L187.773 8.30606H195.601C196.599 8.30606 197.496 8.97635 197.723 10.1361L199.661 20.5232L204.449 8.30546H209.283V8.30594ZM228.339 20.395C228.358 15.6581 221.847 15.3968 221.893 13.28C221.906 12.6363 222.514 11.9516 223.844 11.7771C224.503 11.6895 226.32 11.623 228.38 12.5799L229.188 8.77381C228.081 8.36799 226.657 7.97736 224.885 7.97736C220.337 7.97736 217.136 10.4175 217.11 13.9116C217.08 16.4951 219.394 17.937 221.137 18.7958C222.931 19.6759 223.532 20.2403 223.525 21.0273C223.513 22.2315 222.095 22.7629 220.771 22.7837C218.457 22.8199 217.115 22.1522 216.046 21.6506L215.212 25.5829C216.287 26.0808 218.271 26.5144 220.328 26.5366C225.163 26.5366 228.324 24.1269 228.339 20.395ZM240.348 26.2558H244.603L240.888 8.30594H236.961C236.078 8.30594 235.332 8.82468 235.003 9.62235L228.099 26.2556H232.93L233.889 23.5745H239.792L240.348 26.2558ZM235.214 19.8961L237.636 13.1558L239.029 19.8961H235.214ZM215.856 8.30594L212.052 26.2558H207.451L211.257 8.30594H215.856Z" fill="#1434CB"/>
<path d="M393.604 2.72803H368.635C360.832 2.72803 354.448 9.17139 354.448 17.0458C354.448 24.9204 360.832 31.3637 368.635 31.3637H393.604C401.406 31.3637 407.79 24.9203 407.79 17.0458C407.79 9.17127 401.406 2.72803 393.604 2.72803Z" fill="white"/>
<path d="M393.604 3.88743C395.356 3.88743 397.058 4.23872 398.662 4.92601C400.215 5.59156 401.605 6.54343 402.811 7.75371C404.01 8.96338 404.953 10.3739 405.613 11.9415C406.293 13.5596 406.642 15.2777 406.642 17.0459C406.642 18.8139 406.293 20.5325 405.613 22.1504C404.953 23.718 404.01 25.1213 402.811 26.3382C401.612 27.5485 400.215 28.5004 398.662 29.1658C397.058 29.8532 395.356 30.2044 393.604 30.2044H368.635C366.883 30.2044 365.181 29.8532 363.578 29.1658C362.025 28.5004 360.634 27.5485 359.428 26.3382C358.229 25.1284 357.286 23.718 356.627 22.1504C355.945 20.5325 355.597 18.8138 355.597 17.0459C355.597 15.2775 355.945 13.5596 356.627 11.9415C357.286 10.3739 358.229 8.97067 359.428 7.75371C360.627 6.54356 362.025 5.59156 363.578 4.92601C365.181 4.23872 366.883 3.88743 368.635 3.88743H393.604ZM393.604 2.72803H368.635C360.832 2.72803 354.448 9.17139 354.448 17.0458C354.448 24.9204 360.832 31.3637 368.635 31.3637H393.604C401.406 31.3637 407.79 24.9203 407.79 17.0458C407.79 9.17127 401.406 2.72803 393.604 2.72803Z" fill="#3D4144"/>
<path d="M379.886 18.0626V22.3936H378.524V11.6981H382.134C383.049 11.6981 383.829 12.0056 384.468 12.6214C385.12 13.2372 385.447 13.9888 385.447 14.8765C385.447 15.7858 385.12 16.5375 384.468 17.146C383.836 17.7544 383.056 18.0553 382.134 18.0553H379.886V18.0626ZM379.886 13.0152V16.745H382.163C382.701 16.745 383.156 16.5593 383.51 16.1941C383.872 15.8288 384.056 15.3848 384.056 14.8836C384.056 14.3898 383.872 13.953 383.51 13.5879C383.156 13.2086 382.709 13.0225 382.163 13.0225H379.886V13.0152Z" fill="#3D4144"/>
<path d="M389.008 14.8339C390.015 14.8339 390.809 15.1058 391.391 15.6499C391.973 16.194 392.263 16.9384 392.263 17.8831V22.3937H390.965V21.3775H390.909C390.348 22.2148 389.596 22.6298 388.66 22.6298C387.858 22.6298 387.192 22.3938 386.653 21.9138C386.113 21.4345 385.844 20.84 385.844 20.1242C385.844 19.3659 386.127 18.7641 386.695 18.3201C387.263 17.8693 388.021 17.6473 388.965 17.6473C389.774 17.6473 390.44 17.7976 390.958 18.098V17.7837C390.958 17.3039 390.773 16.9029 390.398 16.5667C390.021 16.2295 389.582 16.0657 389.078 16.0657C388.319 16.0657 387.716 16.3872 387.277 17.0389L386.078 16.2805C386.737 15.3132 387.716 14.8339 389.008 14.8339ZM387.248 20.1458C387.248 20.5037 387.397 20.8047 387.702 21.0401C388 21.2766 388.355 21.398 388.759 21.398C389.334 21.398 389.845 21.1832 390.291 20.7537C390.738 20.3242 390.965 19.8231 390.965 19.2436C390.54 18.907 389.95 18.7352 389.192 18.7352C388.638 18.7352 388.177 18.8711 387.808 19.1361C387.433 19.4155 387.248 19.7515 387.248 20.1458Z" fill="#3D4144"/>
<path d="M399.669 15.0699L395.129 25.6082H393.724L395.412 21.921L392.419 15.0699H393.902L396.058 20.3242H396.087L398.186 15.0699H399.669Z" fill="#3D4144"/>
<path d="M374.468 17.1891C374.468 16.7409 374.428 16.3124 374.355 15.8995H368.646V18.2619L371.934 18.2629C371.8 19.0494 371.371 19.7191 370.713 20.1657V21.6986H372.671C373.813 20.6315 374.468 19.0534 374.468 17.1891Z" fill="#547EBE"/>
<path d="M370.714 20.1655C370.169 20.5365 369.468 20.7538 368.647 20.7538C367.062 20.7538 365.717 19.6753 365.235 18.2223H363.217V19.8024C364.217 21.8059 366.272 23.1805 368.647 23.1805C370.289 23.1805 371.668 22.6359 372.671 21.6979L370.714 20.1655Z" fill="#34A852"/>
<path d="M365.045 17.0495C365.045 16.6412 365.113 16.247 365.235 15.876V14.2954H363.217C362.803 15.1233 362.57 16.0587 362.57 17.0495C362.57 18.0403 362.804 18.975 363.217 19.8035L365.235 18.2229C365.112 17.8521 365.045 17.4578 365.045 17.0495Z" fill="#F8BA16"/>
<path d="M368.647 13.3447C369.543 13.3447 370.345 13.6564 370.979 14.2644L372.713 12.5157C371.66 11.5254 370.286 10.9174 368.647 10.9174C366.273 10.9174 364.217 12.2921 363.217 14.2954L365.235 15.8761C365.717 14.4231 367.062 13.3447 368.647 13.3447Z" fill="#E84336"/>
<path d="M338.326 3.09668L338.784 3.09741C338.91 3.09789 339.035 3.09972 339.161 3.10275C339.39 3.10882 339.659 3.12157 339.918 3.16893C340.158 3.21252 340.361 3.27992 340.557 3.38058C340.954 3.58373 341.277 3.90952 341.478 4.31036C341.578 4.50804 341.644 4.71277 341.687 4.95539C341.733 5.21415 341.746 5.48652 341.752 5.71857C341.755 5.84473 341.757 5.97138 341.758 6.09924C341.759 6.25261 341.759 6.40707 341.759 6.56128V27.5188C341.759 27.6727 341.759 27.8266 341.758 27.9824C341.757 28.1088 341.755 28.2351 341.752 28.3612C341.746 28.5935 341.733 28.8655 341.687 29.1264C341.649 29.3501 341.579 29.5668 341.478 29.7697C341.275 30.1702 340.953 30.4958 340.556 30.7001C340.355 30.8024 340.14 30.8738 339.918 30.9116C339.668 30.9519 339.416 30.9739 339.163 30.977C339.037 30.9801 338.911 30.982 338.783 30.982C338.631 30.9831 338.478 30.9831 338.326 30.9831H301.35C301.199 30.9831 301.048 30.9831 300.896 30.982C300.77 30.982 300.643 30.9801 300.52 30.977C300.267 30.9739 300.014 30.9519 299.764 30.9116C299.541 30.8741 299.325 30.8026 299.124 30.6995C298.927 30.5984 298.746 30.4662 298.591 30.3079C298.434 30.1501 298.303 29.9683 298.204 29.7696C298.102 29.5663 298.031 29.3488 297.994 29.1244C297.953 28.872 297.931 28.6167 297.929 28.3611C297.926 28.2347 297.924 28.1082 297.923 27.9816L297.922 27.6118V6.46851L297.923 6.09937C297.924 5.97272 297.926 5.84594 297.929 5.71869C297.935 5.48773 297.947 5.21622 297.994 4.95417C298.031 4.73002 298.102 4.51278 298.204 4.30987C298.405 3.9094 298.728 3.58385 299.124 3.38058C299.325 3.27797 299.541 3.20706 299.763 3.16954C300.013 3.12825 300.267 3.10615 300.52 3.1036C300.646 3.10057 300.771 3.09862 300.896 3.09802L301.355 3.09668H338.326Z" fill="white"/>
<path d="M338.326 3.09665L338.784 3.09738C338.91 3.09786 339.035 3.09968 339.161 3.10272C339.39 3.10879 339.659 3.12154 339.918 3.1689C340.158 3.21249 340.361 3.27988 340.557 3.38055C340.954 3.5837 341.277 3.90949 341.478 4.31033C341.578 4.50801 341.644 4.71274 341.687 4.95536C341.733 5.21412 341.746 5.48649 341.752 5.71854C341.755 5.8447 341.757 5.97135 341.758 6.09921C341.759 6.25258 341.759 6.40704 341.759 6.56125V27.5187C341.759 27.6727 341.759 27.8265 341.758 27.9823C341.757 28.1087 341.755 28.235 341.752 28.3612C341.746 28.5935 341.733 28.8655 341.687 29.1263C341.649 29.3501 341.579 29.5667 341.478 29.7696C341.275 30.1701 340.953 30.4958 340.556 30.7C340.355 30.8024 340.14 30.8738 339.918 30.9116C339.668 30.9519 339.416 30.9739 339.163 30.977C339.037 30.98 338.911 30.982 338.783 30.982C338.631 30.9831 338.478 30.9831 338.326 30.9831H301.35C301.199 30.9831 301.048 30.9831 300.896 30.982C300.77 30.982 300.643 30.98 300.52 30.977C300.267 30.9739 300.014 30.9519 299.764 30.9116C299.541 30.874 299.325 30.8025 299.124 30.6994C298.927 30.5984 298.746 30.4662 298.591 30.3078C298.434 30.1501 298.303 29.9683 298.204 29.7695C298.102 29.5663 298.031 29.3488 297.994 29.1244C297.953 28.8719 297.931 28.6167 297.929 28.3611C297.926 28.2347 297.924 28.1081 297.923 27.9816L297.923 27.6117V6.46848L297.923 6.09933C297.924 5.97268 297.926 5.84591 297.929 5.71866C297.935 5.4877 297.947 5.21618 297.994 4.95414C298.031 4.72998 298.102 4.51275 298.204 4.30984C298.405 3.90937 298.728 3.58382 299.124 3.38055C299.325 3.27794 299.541 3.20703 299.763 3.16951C300.013 3.12822 300.267 3.10612 300.52 3.10357C300.646 3.10053 300.771 3.09859 300.896 3.09798L301.355 3.09665H338.326ZM338.326 2.49048H301.355L300.893 2.49121C300.764 2.49169 300.634 2.49351 300.504 2.49703C300.221 2.50104 299.938 2.52618 299.657 2.5722C299.377 2.62089 299.106 2.71111 298.852 2.84031C298.343 3.10309 297.929 3.52104 297.669 4.03505C297.54 4.29114 297.451 4.56508 297.403 4.84801C297.357 5.13058 297.332 5.41642 297.328 5.70275C297.325 5.83304 297.323 5.96394 297.323 6.09484L297.322 6.56125V27.5187L297.323 27.9855C297.323 28.1164 297.325 28.2473 297.329 28.3776C297.336 28.6626 297.353 28.9499 297.404 29.2318C297.454 29.5184 297.538 29.7846 297.669 30.0447C297.928 30.5595 298.342 30.9781 298.852 31.2395C299.11 31.3721 299.374 31.4558 299.657 31.5074C299.937 31.5577 300.221 31.5748 300.504 31.5826C300.634 31.5862 300.763 31.5882 300.893 31.5882C301.047 31.5893 301.202 31.5893 301.355 31.5893H338.326C338.48 31.5893 338.634 31.5893 338.788 31.5882C338.918 31.5873 339.048 31.5856 339.177 31.5826C339.46 31.5748 339.744 31.5577 340.024 31.5074C340.304 31.459 340.576 31.3685 340.829 31.2395C341.339 30.9783 341.754 30.5597 342.013 30.0447C342.144 29.7845 342.227 29.5184 342.278 29.2318C342.328 28.9499 342.345 28.6626 342.352 28.3776C342.356 28.2467 342.358 28.1158 342.358 27.9855C342.36 27.8297 342.36 27.6745 342.36 27.5187V6.56125C342.36 6.40534 342.36 6.25015 342.358 6.09423C342.358 5.96358 342.356 5.8328 342.352 5.70214C342.349 5.41581 342.324 5.12997 342.278 4.84741C342.23 4.56448 342.141 4.29053 342.013 4.03432C341.754 3.51983 341.339 3.10138 340.829 2.83971C340.576 2.71051 340.304 2.62028 340.024 2.57159C339.744 2.52557 339.461 2.50043 339.177 2.49643C339.047 2.49278 338.917 2.49157 338.788 2.49036L338.326 2.49048Z" fill="black"/>
<path d="M310.75 11.2211C311.166 10.7123 311.446 10.0057 311.37 9.30103C310.769 9.32592 310.043 9.70611 309.615 10.2128C309.228 10.6626 308.893 11.3828 308.985 12.0732C309.653 12.1255 310.334 11.7297 310.75 11.2211ZM312.476 15.6911C312.462 14.1679 313.707 13.4348 313.765 13.3985C313.063 12.3678 311.973 12.2249 311.585 12.2092C310.657 12.1163 309.773 12.7608 309.304 12.7608C308.833 12.7608 308.108 12.2237 307.337 12.24C306.326 12.2547 305.393 12.8334 304.872 13.7471C303.824 15.5918 304.606 18.316 305.629 19.8079C306.131 20.5384 306.726 21.3591 307.511 21.3293C308.267 21.2996 308.55 20.8359 309.464 20.8359C310.375 20.8348 310.632 21.3282 311.428 21.3142C312.24 21.2965 312.756 20.5685 313.254 19.8345C313.826 18.9887 314.063 18.1674 314.075 18.1262C314.059 18.1153 312.494 17.5128 312.476 15.6911ZM322.144 11.2203C321.841 10.9259 321.45 10.6967 320.983 10.539C320.52 10.3832 319.964 10.3044 319.33 10.3044C318.924 10.3027 318.519 10.3238 318.115 10.3681C317.779 10.406 317.443 10.4536 317.11 10.5107L317.012 10.5276V21.2372H317.981V16.7254C318.307 16.7816 318.68 16.8114 319.092 16.8114C319.641 16.8114 320.154 16.7405 320.619 16.6017C321.067 16.4732 321.483 16.254 321.843 15.9573C322.19 15.6644 322.469 15.2984 322.661 14.8849C322.859 14.4605 322.96 13.9617 322.96 13.4002C322.96 12.936 322.887 12.5184 322.746 12.1587C322.608 11.8089 322.404 11.49 322.144 11.2203ZM321.253 15.3111C320.756 15.7318 320.052 15.9451 319.159 15.9451C318.913 15.9451 318.681 15.9343 318.468 15.9143C318.304 15.8992 318.141 15.8716 317.981 15.8317V11.2774C318.109 11.2538 318.268 11.2314 318.454 11.2115C318.69 11.186 318.974 11.1732 319.3 11.1732C319.673 11.1693 320.046 11.2181 320.407 11.318C320.714 11.4033 321.002 11.546 321.258 11.7386C321.49 11.9205 321.673 12.157 321.8 12.4418C321.927 12.7304 321.992 13.0747 321.992 13.4644C321.991 14.2738 321.743 14.8952 321.253 15.3111ZM328.751 20.2346C328.74 19.9316 328.736 19.6272 328.736 19.3241V16.3472C328.736 15.9942 328.7 15.6343 328.631 15.2765C328.565 14.9207 328.428 14.5818 328.23 14.2798C328.033 13.9816 327.757 13.7355 327.413 13.5476C327.068 13.3603 326.62 13.2657 326.08 13.2657C325.686 13.2657 325.301 13.3172 324.937 13.4196C324.556 13.5306 324.195 13.7037 323.869 13.9326L323.79 13.9878L324.117 14.7607L324.236 14.6799C324.494 14.505 324.777 14.3692 325.074 14.2775C325.375 14.1825 325.688 14.1339 326.003 14.1332C326.407 14.1332 326.73 14.2071 326.96 14.3526C327.193 14.5 327.369 14.6825 327.483 14.8957C327.601 15.1159 327.679 15.3499 327.713 15.5928C327.75 15.8458 327.767 16.0718 327.767 16.2658V16.3518C326.331 16.3451 325.209 16.5864 324.465 17.0708C323.683 17.5788 323.287 18.302 323.287 19.2197C323.287 19.4839 323.334 19.7501 323.426 20.0132C323.52 20.2791 323.662 20.5174 323.848 20.7211C324.036 20.9272 324.278 21.0953 324.567 21.2206C324.856 21.3473 325.195 21.411 325.574 21.411C326.111 21.42 326.639 21.2742 327.096 20.991C327.296 20.8667 327.473 20.7253 327.624 20.5734C327.688 20.5079 327.75 20.4393 327.808 20.3684H327.846L327.935 21.2375H328.869L328.843 21.0983C328.791 20.8131 328.761 20.5244 328.751 20.2346ZM327.767 18.7093C327.767 18.8135 327.742 18.9567 327.696 19.1282C327.633 19.3139 327.545 19.49 327.435 19.6515C327.189 20.0139 326.833 20.2856 326.42 20.4244C326.17 20.5075 325.907 20.5479 325.644 20.5436C325.47 20.5437 325.297 20.5141 325.133 20.4557C324.974 20.3998 324.828 20.3114 324.704 20.1963C324.574 20.0722 324.471 19.9221 324.402 19.7557C324.326 19.5779 324.287 19.358 324.287 19.102C324.287 18.6832 324.399 18.3431 324.618 18.0945C324.854 17.8297 325.151 17.6268 325.482 17.5035C325.857 17.3611 326.25 17.2706 326.649 17.2349C327.021 17.1987 327.394 17.1823 327.767 17.1859V18.7093ZM335.326 13.4397L333.518 18.4004C333.405 18.6998 333.3 19.0016 333.204 19.2956C333.157 19.4423 333.113 19.5813 333.069 19.7134H333.035C332.989 19.5687 332.943 19.4239 332.897 19.2798C332.803 18.9888 332.702 18.7035 332.599 18.4312L330.665 13.4398H329.631L332.397 20.6162C332.47 20.7889 332.481 20.8683 332.481 20.9005C332.481 20.9102 332.477 20.9689 332.396 21.1872C332.245 21.5765 332.048 21.9461 331.809 22.2881C331.588 22.5922 331.385 22.8396 331.204 23.0221C330.994 23.2342 330.777 23.4081 330.556 23.5399C330.331 23.6738 330.126 23.7822 329.944 23.8641L329.839 23.9114L330.176 24.7376L330.283 24.6977C330.371 24.6644 330.535 24.5885 330.785 24.4656C331.037 24.3401 331.317 24.1412 331.615 23.8721C331.879 23.6375 332.113 23.371 332.313 23.0786C332.517 22.7826 332.721 22.4353 332.922 22.0499C333.12 21.6648 333.318 21.2273 333.512 20.7476C333.705 20.2657 333.913 19.7269 334.127 19.1479L336.361 13.4398L335.326 13.4397Z" fill="black"/>
</g>
<defs>
<clipPath id="clip0_678_242">
<rect width="411" height="34" fill="white"/>
</clipPath>
</defs>
</svg>
