<svg width="1920" height="5214" viewBox="0 0 1920 5214" fill="none" xmlns="http://www.w3.org/2000/svg">
<g clip-path="url(#clip0_617_242)">
<rect width="1920" height="5214" fill="url(#paint0_linear_617_242)"/>
<g filter="url(#filter0_f_617_242)">
<path d="M1316.83 2267.83C1507.52 2202.76 1714.85 2304.58 1779.93 2495.26C1845.01 2685.94 1743.18 2893.28 1552.5 2958.35C1361.82 3023.43 1154.48 2921.61 1089.41 2730.93C1024.33 2540.24 1126.15 2332.91 1316.83 2267.83Z" fill="url(#paint1_angular_617_242)"/>
</g>
<g filter="url(#filter1_f_617_242)">
<circle cx="500.094" cy="4154.09" r="364.814" transform="rotate(-108.844 500.094 4154.09)" fill="url(#paint2_angular_617_242)"/>
</g>
<g filter="url(#filter2_f_617_242)">
<circle cx="1339.09" cy="520.094" r="364.814" transform="rotate(-108.844 1339.09 520.094)" fill="url(#paint3_angular_617_242)"/>
</g>
<g filter="url(#filter3_f_617_242)">
<path d="M1065.26 3950.83C1255.94 3885.76 1463.28 3987.58 1528.35 4178.26C1593.43 4368.94 1491.61 4576.28 1300.93 4641.35C1110.24 4706.43 902.91 4604.61 837.833 4413.93C772.756 4223.24 874.578 4015.91 1065.26 3950.83Z" fill="url(#paint4_angular_617_242)"/>
</g>
<g filter="url(#filter4_f_617_242)">
<path d="M59.8339 1902.05C250.516 1836.98 457.85 1938.8 522.927 2129.48C588.005 2320.16 486.182 2527.5 295.5 2592.58C104.818 2657.65 -102.516 2555.83 -167.594 2365.15C-232.671 2174.47 -130.848 1967.13 59.8339 1902.05Z" fill="url(#paint5_angular_617_242)"/>
</g>
</g>
<defs>
<filter id="filter0_f_617_242" x="369.754" y="1548.18" width="2129.83" height="2129.83" filterUnits="userSpaceOnUse" color-interpolation-filters="sRGB">
<feFlood flood-opacity="0" result="BackgroundImageFix"/>
<feBlend mode="normal" in="SourceGraphic" in2="BackgroundImageFix" result="shape"/>
<feGaussianBlur stdDeviation="350" result="effect1_foregroundBlur_617_242"/>
</filter>
<filter id="filter1_f_617_242" x="-564.82" y="3089.18" width="2129.83" height="2129.83" filterUnits="userSpaceOnUse" color-interpolation-filters="sRGB">
<feFlood flood-opacity="0" result="BackgroundImageFix"/>
<feBlend mode="normal" in="SourceGraphic" in2="BackgroundImageFix" result="shape"/>
<feGaussianBlur stdDeviation="350" result="effect1_foregroundBlur_617_242"/>
</filter>
<filter id="filter2_f_617_242" x="274.18" y="-544.82" width="2129.83" height="2129.83" filterUnits="userSpaceOnUse" color-interpolation-filters="sRGB">
<feFlood flood-opacity="0" result="BackgroundImageFix"/>
<feBlend mode="normal" in="SourceGraphic" in2="BackgroundImageFix" result="shape"/>
<feGaussianBlur stdDeviation="350" result="effect1_foregroundBlur_617_242"/>
</filter>
<filter id="filter3_f_617_242" x="118.18" y="3231.18" width="2129.83" height="2129.83" filterUnits="userSpaceOnUse" color-interpolation-filters="sRGB">
<feFlood flood-opacity="0" result="BackgroundImageFix"/>
<feBlend mode="normal" in="SourceGraphic" in2="BackgroundImageFix" result="shape"/>
<feGaussianBlur stdDeviation="350" result="effect1_foregroundBlur_617_242"/>
</filter>
<filter id="filter4_f_617_242" x="-887.247" y="1182.4" width="2129.83" height="2129.83" filterUnits="userSpaceOnUse" color-interpolation-filters="sRGB">
<feFlood flood-opacity="0" result="BackgroundImageFix"/>
<feBlend mode="normal" in="SourceGraphic" in2="BackgroundImageFix" result="shape"/>
<feGaussianBlur stdDeviation="350" result="effect1_foregroundBlur_617_242"/>
</filter>
<linearGradient id="paint0_linear_617_242" x1="27.9999" y1="0.000100656" x2="3418.78" y2="2003.87" gradientUnits="userSpaceOnUse">
<stop stop-color="#041548"/>
<stop offset="1" stop-color="#072C18"/>
</linearGradient>
<radialGradient id="paint1_angular_617_242" cx="0" cy="0" r="1" gradientUnits="userSpaceOnUse" gradientTransform="translate(1558.09 2613.09) rotate(-18.8441) scale(364.814)">
<stop stop-color="#00FFE0"/>
<stop offset="1" stop-color="#0B38BD"/>
</radialGradient>
<radialGradient id="paint2_angular_617_242" cx="0" cy="0" r="1" gradientUnits="userSpaceOnUse" gradientTransform="translate(500.093 4154.09) rotate(90) scale(364.814)">
<stop stop-color="#00FFE0"/>
<stop offset="1" stop-color="#0B38BD"/>
</radialGradient>
<radialGradient id="paint3_angular_617_242" cx="0" cy="0" r="1" gradientUnits="userSpaceOnUse" gradientTransform="translate(1339.09 520.094) rotate(90) scale(364.814)">
<stop stop-color="#00FFE0"/>
<stop offset="1" stop-color="#0B38BD"/>
</radialGradient>
<radialGradient id="paint4_angular_617_242" cx="0" cy="0" r="1" gradientUnits="userSpaceOnUse" gradientTransform="translate(1316.45 3922.35) rotate(-18.8441) scale(364.814)">
<stop stop-color="#00FFE0"/>
<stop offset="1" stop-color="#BD1E4F"/>
</radialGradient>
<radialGradient id="paint5_angular_617_242" cx="0" cy="0" r="1" gradientUnits="userSpaceOnUse" gradientTransform="translate(171.447 2250.35) rotate(-18.8441) scale(364.814)">
<stop stop-color="#00FFE0"/>
<stop offset="1" stop-color="#BD1E4F"/>
</radialGradient>
<clipPath id="clip0_617_242">
<rect width="1920" height="5214" fill="white"/>
</clipPath>
</defs>
</svg>
