<svg width="121" height="40" viewBox="0 0 121 40" fill="none" xmlns="http://www.w3.org/2000/svg">
<g clip-path="url(#clip0_987_245)">
<path d="M18.2534 37.4486C8.17299 37.4486 0 29.1035 0 18.8074C0 8.51121 8.17299 0.166138 18.2534 0.166138C10.6919 0.166138 4.56343 8.51121 4.56343 18.8074C4.56343 29.1035 10.6919 37.4486 18.2534 37.4486Z" fill="white"/>
<path d="M36.5068 18.8074C36.5068 29.1035 28.334 37.4486 18.2534 37.4486C25.8149 37.4486 31.9436 29.1035 31.9436 18.8074C31.9436 8.51121 25.8149 0.166138 18.2534 0.166138C28.334 0.166138 36.5068 8.51121 36.5068 18.8074Z" fill="white"/>
<path d="M18.2534 32.7879C10.6919 32.7879 4.56348 26.529 4.56348 18.807C4.56348 11.0848 10.6919 4.82599 18.2534 4.82599C13.211 4.82599 9.12671 11.0848 9.12671 18.807C9.12671 26.529 13.211 32.7879 18.2534 32.7879Z" fill="white"/>
<path d="M31.9424 18.8074C31.9424 26.5296 25.8138 32.7882 18.2524 32.7882C23.2949 32.7882 27.3791 26.5296 27.3791 18.8074C27.3791 11.0852 23.2949 4.82654 18.2524 4.82654C25.8138 4.82654 31.9424 11.0852 31.9424 18.8074Z" fill="white"/>
<path d="M13.6902 18.8074C13.6902 13.6597 15.7334 9.48669 18.2535 9.48669C13.2129 9.48669 9.12695 13.6597 9.12695 18.8074C9.12695 23.955 13.2129 28.128 18.2535 28.128C15.7334 28.128 13.6902 23.955 13.6902 18.8074Z" fill="white"/>
<path d="M18.2534 9.4859C20.7737 9.4859 22.8167 13.6589 22.8167 18.8065C22.8167 23.9542 20.7737 28.1271 18.2534 28.1271C23.294 28.1271 27.3801 23.9542 27.3801 18.8065C27.3801 13.6589 23.294 9.4859 18.2534 9.4859Z" fill="white"/>
<path d="M60.4379 17.3256C60.4379 13.498 58.4909 10.093 54.1106 10.093C49.7299 10.093 47.7829 13.498 47.7829 17.3256C47.7829 21.153 49.7299 24.5829 54.1106 24.5829C58.4909 24.5829 60.4379 21.153 60.4379 17.3256ZM45.5928 17.3256C45.5928 11.9819 48.9997 8.10461 54.1106 8.10461C59.2208 8.10461 62.6284 11.9819 62.6284 17.3256C62.6284 22.6692 59.2208 26.5712 54.1106 26.5712C48.9997 26.5712 45.5928 22.6692 45.5928 17.3256Z" fill="white"/>
<path d="M74.4865 19.8852C74.4865 17.3997 73.1963 14.9392 70.641 14.9392C68.3292 14.9392 66.8933 16.9026 66.8933 19.8852C66.8933 22.8676 68.3292 24.831 70.641 24.831C73.1963 24.831 74.4865 22.3704 74.4865 19.8852ZM76.4334 19.8852C76.4334 24.0606 73.9509 26.5708 70.8845 26.5708C68.8402 26.5708 67.6719 25.6762 66.942 24.5824H66.8933V30.4978H64.9463V13.5475H66.8933V15.1131H66.942C67.6719 14.1439 68.8402 13.1992 70.8845 13.1992C73.9509 13.1992 76.4334 15.7097 76.4334 19.8852Z" fill="white"/>
<path d="M81.0678 15.2862V22.9164C81.0678 24.3578 81.8465 24.6064 83.5016 24.4821V26.2218C83.0635 26.3211 82.5526 26.3709 82.0414 26.3709C80.3866 26.3709 79.1209 25.7 79.1209 23.1152V15.2862H77.2959V13.5464H79.1209V9.32123H81.0678V13.5464H83.5016V15.2862H81.0678Z" fill="white"/>
<path d="M87.753 26.2219H85.8065V13.5464H87.753V26.2219ZM85.563 9.89288C85.563 9.12245 86.2442 8.70001 86.7806 8.70001C87.34 8.70001 87.9973 9.12245 87.9973 9.89288C87.9973 10.6634 87.34 11.0859 86.7806 11.0859C86.2442 11.0859 85.563 10.6634 85.563 9.89288Z" fill="white"/>
<path d="M107.36 17.3749V26.2227H105.412V17.8718C105.412 16.2316 105.096 14.9392 103.149 14.9392C101.202 14.9392 99.9851 16.3559 99.9851 18.3194V26.2227H98.0387V17.8718C98.0387 16.2316 97.7219 14.9392 95.7755 14.9392C93.8281 14.9392 92.6114 16.3559 92.6114 18.3194V26.2227H90.6641V13.5473H92.6114V15.0634H92.6599C93.3173 14.1688 94.3884 13.1992 96.2616 13.1992C98.0387 13.1992 99.0604 13.9698 99.5713 15.3866H99.6207C100.472 14.1935 101.762 13.1992 103.636 13.1992C106.143 13.1992 107.36 14.7155 107.36 17.3749Z" fill="white"/>
<path d="M117.551 21.3264V19.2137C117.186 19.5865 115.993 19.9345 114.679 20.208C112.269 20.73 111.15 21.3513 111.15 22.8674C111.15 24.11 111.88 24.8308 113.486 24.8308C115.798 24.8308 117.551 23.7619 117.551 21.3264ZM115.02 14.9389C112.659 14.9389 111.88 15.6348 111.758 17.474H109.811C109.933 15.0383 111.418 13.199 115.02 13.199C117.38 13.199 119.497 14.1437 119.497 17.2005V23.3643C119.497 24.3583 119.668 24.9054 120.909 24.7562V26.1481C120.397 26.3218 120.13 26.3467 119.765 26.3467C118.597 26.3467 117.892 26.0237 117.551 24.632H117.502C116.723 25.8249 115.335 26.5706 113.292 26.5706C110.785 26.5706 109.203 25.1043 109.203 22.9667C109.203 20.0838 111.296 19.3381 114.509 18.7168C116.601 18.3191 117.551 18.0456 117.551 16.7781C117.551 15.7842 117.015 14.9389 115.02 14.9389Z" fill="white"/>
<path d="M77.4578 34.3173L77.3246 34.9063C77.2174 35.386 77.1639 35.7578 77.1639 36.0221C77.1639 36.2562 77.2229 36.4326 77.3414 36.5517C77.4598 36.6704 77.6095 36.7301 77.7905 36.7301C78.0381 36.7301 78.249 36.6215 78.4228 36.4044C78.5967 36.1874 78.7881 35.6227 78.9967 34.7108C79.2056 33.799 79.3101 33.2376 79.3101 33.026C79.3101 32.6862 79.1472 32.5163 78.8219 32.5163C78.5817 32.5163 78.3348 32.6408 78.0818 32.8901C77.8285 33.1392 77.6206 33.615 77.4578 34.3173ZM78.6501 29.1635L77.8016 32.8901L77.8238 32.9127C78.1269 32.456 78.4968 32.2275 78.9331 32.2275C79.3101 32.2275 79.6336 32.3852 79.9035 32.7003C80.1733 33.0157 80.3082 33.4338 80.3082 33.9548C80.3082 34.7062 80.0291 35.399 79.4709 36.0334C78.9128 36.6678 78.3027 36.9849 77.6409 36.9849C77.2416 36.9849 76.9033 36.8648 76.6259 36.6253C76.3487 36.3855 76.21 36.0673 76.21 35.6708C76.21 35.335 76.2433 35.0461 76.3098 34.8043C76.3208 34.7818 76.3413 34.7119 76.371 34.5948L77.5409 29.5373H76.87L76.9255 29.2485H77.5743C77.9736 29.2485 78.3321 29.2201 78.6501 29.1635Z" fill="white"/>
<path d="M83.2104 37.1098L82.2787 33.6663C82.19 33.3343 82.1242 33.1219 82.0819 33.0293C82.0394 32.9368 81.9757 32.8905 81.8906 32.8905C81.6834 32.8905 81.4448 33.289 81.1752 34.0855H80.9367C81.1217 33.4739 81.3435 33.0152 81.6021 32.7093C81.8608 32.4034 82.127 32.2507 82.4008 32.2507C82.5818 32.2507 82.7399 32.3166 82.8749 32.4488C83.0101 32.581 83.1403 32.8792 83.2659 33.3435L83.9036 35.7168H83.9259C84.0035 35.4675 84.2078 34.9116 84.5386 34.0486C84.8694 33.186 85.098 32.6707 85.2237 32.5026C85.3489 32.3346 85.503 32.2507 85.6835 32.2507C85.9722 32.2507 86.1161 32.3942 86.1161 32.6811C86.1161 32.8245 86.0786 32.9397 86.0028 33.0265C85.9271 33.1135 85.8428 33.1567 85.7508 33.1567C85.6912 33.1567 85.6273 33.1332 85.5592 33.0859C85.4902 33.0388 85.4417 33.0152 85.4119 33.0152C85.2714 33.0152 85.105 33.2587 84.9129 33.7457L83.9481 36.1923C83.6338 36.9775 83.1847 37.7811 82.6003 38.6021C82.0161 39.4235 81.345 39.834 80.5872 39.834C80.358 39.834 80.1873 39.7802 80.0744 39.6726C79.9614 39.5649 79.9053 39.445 79.9053 39.313C79.9053 39.2033 79.9421 39.1108 80.0161 39.0355C80.0902 38.9599 80.188 38.9221 80.31 38.9221C80.5617 38.9221 80.737 39.0447 80.8368 39.2902C80.9069 39.445 80.9792 39.5226 81.0531 39.5226C81.2231 39.5226 81.5098 39.3573 81.9126 39.027C82.3156 38.6965 82.7482 38.0575 83.2104 37.1098Z" fill="white"/>
<path d="M92.7798 29.5366L91.3383 36.5538H92.2808C92.7168 36.5538 93.0804 36.5255 93.3707 36.4688C93.6611 36.4122 93.9242 36.2782 94.1609 36.0668C94.3976 35.8552 94.6326 35.4436 94.8651 34.8321C95.0984 34.2204 95.2678 33.5938 95.3725 32.9517C95.4781 32.3099 95.5309 31.7398 95.5309 31.2414C95.5309 30.7732 95.433 30.4042 95.2372 30.1341C95.0405 29.8642 94.8242 29.6973 94.5883 29.6329C94.3516 29.5688 93.9872 29.5366 93.4959 29.5366H92.7798ZM90.0457 36.5538L91.4881 29.5366H90.3403L90.4067 29.2478H93.4176C93.9208 29.2478 94.3516 29.2838 94.7101 29.3555C95.0686 29.4272 95.4236 29.6102 95.7744 29.9048C96.1261 30.1992 96.3934 30.5628 96.5765 30.9949C96.7596 31.4274 96.8507 31.8795 96.8507 32.3514C96.8507 33.4691 96.4573 34.497 95.6697 35.4352C94.8821 36.3735 93.8024 36.8426 92.4307 36.8426H88.9644L89.0257 36.5538H90.0457Z" fill="white"/>
<path d="M102.299 32.3909L101.572 35.6023C101.561 35.6212 101.539 35.7097 101.506 35.8683C101.472 36.0269 101.456 36.1592 101.456 36.2647C101.456 36.3252 101.473 36.3829 101.508 36.4376C101.543 36.4924 101.587 36.5196 101.639 36.5196C101.775 36.5196 101.935 36.4018 102.118 36.1657C102.301 35.9299 102.471 35.6175 102.626 35.2283H102.875C102.661 35.8251 102.404 36.2669 102.107 36.5536C101.81 36.8407 101.509 36.9841 101.206 36.9841C100.969 36.9841 100.791 36.8925 100.671 36.7095C100.55 36.5263 100.491 36.3197 100.491 36.0892C100.491 36.0177 100.505 35.893 100.535 35.7156L100.513 35.6928C99.9391 36.5536 99.3422 36.9841 98.7215 36.9841C98.4584 36.9841 98.2285 36.8943 98.031 36.7151C97.8334 36.5358 97.7347 36.2952 97.7347 35.9929C97.7347 35.8874 97.75 35.7646 97.7815 35.6249C97.813 35.4853 97.8419 35.353 97.8675 35.2283L98.4499 32.6458H97.5737L97.6401 32.3909H98.5717C98.8526 32.3909 99.08 32.3788 99.2537 32.3543C99.4274 32.3297 99.5398 32.3174 99.5926 32.3174L98.8433 35.6023C98.7692 35.8855 98.7326 36.1026 98.7326 36.2536C98.7326 36.4838 98.8382 36.599 99.0485 36.599C99.263 36.599 99.5611 36.4233 99.9417 36.0723C100.322 35.721 100.607 35.1361 100.796 34.3166L101.239 32.3909H102.299Z" fill="white"/>
<path d="M106.599 33.4458C106.599 33.1816 106.538 32.9512 106.416 32.7549C106.294 32.5587 106.116 32.4604 105.883 32.4604C105.676 32.4604 105.5 32.5502 105.354 32.7292C105.208 32.9089 105.023 33.4695 104.799 34.4115C104.575 35.3536 104.464 35.936 104.464 36.1587C104.464 36.3023 104.505 36.4268 104.586 36.5325C104.667 36.6384 104.771 36.6911 104.896 36.6911C105.381 36.6911 105.785 36.3014 106.11 35.5215C106.436 34.7419 106.599 34.05 106.599 33.4458ZM108.712 29.1642L107.237 35.5697C107.166 35.8454 107.131 36.0775 107.131 36.2663C107.131 36.3796 107.188 36.4362 107.303 36.4362C107.539 36.4362 107.812 36.0588 108.118 35.3034H108.385C107.974 36.4249 107.477 36.9855 106.893 36.9855C106.449 36.9855 106.207 36.6477 106.167 35.9717H106.144C105.785 36.6477 105.342 36.9855 104.813 36.9855C104.451 36.9855 104.136 36.8044 103.868 36.4418C103.6 36.0795 103.466 35.6527 103.466 35.1619C103.466 34.4295 103.724 33.7537 104.239 33.1343C104.755 32.5153 105.296 32.2055 105.861 32.2055C106.323 32.2055 106.623 32.4682 106.759 32.9928H106.782L107.564 29.538H106.521L106.588 29.2491H107.498C107.922 29.2491 108.327 29.2208 108.712 29.1642Z" fill="white"/>
<path d="M110.71 29.9159C110.71 29.746 110.772 29.5997 110.893 29.4769C111.015 29.3544 111.157 29.293 111.32 29.293C111.49 29.293 111.636 29.3535 111.756 29.4742C111.876 29.5952 111.936 29.7425 111.936 29.9159C111.936 30.0896 111.875 30.238 111.753 30.3606C111.631 30.4832 111.487 30.5446 111.32 30.5446C111.157 30.5446 111.015 30.4832 110.893 30.3606C110.772 30.238 110.71 30.0896 110.71 29.9159ZM111.37 32.2833L110.538 35.7778C110.48 36.0647 110.45 36.2499 110.45 36.3328C110.45 36.4725 110.518 36.5423 110.655 36.5423C110.824 36.5423 111.022 36.4169 111.245 36.1657C111.469 35.9147 111.689 35.542 111.902 35.0471H112.152C111.667 36.3384 111.006 36.9841 110.167 36.9841C109.679 36.9841 109.435 36.7236 109.435 36.2024C109.435 36.0438 109.457 35.8761 109.501 35.6984C109.546 35.5209 109.581 35.3756 109.607 35.2623L110.222 32.6797H109.174L109.235 32.3909H109.878C110.407 32.3909 110.905 32.3551 111.37 32.2833Z" fill="white"/>
<path d="M114.857 31.1349L114.596 32.3922H115.312L115.25 32.6811H114.524L113.787 35.8696C113.727 36.1074 113.697 36.2775 113.697 36.3794C113.697 36.5265 113.759 36.6003 113.88 36.6003C114.177 36.6003 114.502 36.1473 114.857 35.241H115.084C114.906 35.8112 114.677 36.2444 114.396 36.5409C114.115 36.8374 113.814 36.9854 113.492 36.9854C112.971 36.9854 112.71 36.7136 112.71 36.1698C112.71 36.0151 112.755 35.7414 112.843 35.3487L113.459 32.6811H112.733L112.788 32.3922H113.536L113.787 31.2991C114.163 31.2955 114.521 31.2408 114.857 31.1349Z" fill="white"/>
<path d="M117.101 33.123C117.101 33.2477 117.149 33.3703 117.243 33.4911C117.337 33.6119 117.577 33.7771 117.964 33.9866C118.35 34.1962 118.633 34.4134 118.813 34.6379C118.991 34.8627 119.081 35.1187 119.081 35.4053C119.081 35.8698 118.891 36.2493 118.51 36.5437C118.13 36.8383 117.68 36.9856 117.163 36.9856C116.749 36.9856 116.406 36.8893 116.134 36.6966C115.862 36.5042 115.726 36.2797 115.726 36.0226C115.726 35.8717 115.773 35.7444 115.867 35.6405C115.962 35.5366 116.079 35.4847 116.22 35.4847C116.356 35.4847 116.462 35.531 116.536 35.6234C116.61 35.716 116.647 35.8208 116.647 35.9377C116.647 36.0247 116.624 36.1189 116.58 36.2209C116.536 36.3229 116.514 36.3872 116.514 36.4135C116.514 36.6251 116.741 36.7307 117.196 36.7307C117.543 36.7307 117.822 36.6524 118.03 36.4956C118.239 36.3391 118.344 36.1607 118.344 35.9604C118.344 35.6396 118.051 35.3355 117.467 35.0486C116.732 34.6824 116.364 34.2181 116.364 33.6553C116.364 33.3119 116.517 32.9918 116.824 32.6953C117.131 32.399 117.534 32.2508 118.034 32.2508C118.411 32.2508 118.71 32.3225 118.934 32.466C119.158 32.6096 119.27 32.804 119.27 33.0494C119.27 33.1891 119.223 33.3051 119.129 33.3976C119.034 33.4903 118.926 33.5364 118.804 33.5364C118.682 33.5364 118.582 33.4939 118.504 33.4089C118.427 33.324 118.388 33.2192 118.388 33.0945C118.388 33.0418 118.401 32.9728 118.427 32.8877C118.452 32.803 118.465 32.7341 118.465 32.6812C118.465 32.5643 118.315 32.5055 118.011 32.5055C117.73 32.5055 117.508 32.5643 117.346 32.6812C117.183 32.7984 117.101 32.9457 117.101 33.123Z" fill="white"/>
</g>
<defs>
<clipPath id="clip0_987_245">
<rect width="120.909" height="40" fill="white"/>
</clipPath>
</defs>
</svg>
