<svg width="40" height="40" viewBox="0 0 40 40" fill="none" xmlns="http://www.w3.org/2000/svg">
<path d="M20.0003 40C8.95519 40 0 31.0467 0 20C0 8.95335 8.95519 0 20.0003 0C11.7151 0 5.00017 8.95335 5.00017 20C5.00017 31.0467 11.7151 40 20.0003 40Z" fill="white"/>
<path d="M40.0003 20C40.0003 31.0467 31.0453 40 20 40C28.2852 40 35.0004 31.0467 35.0004 20C35.0004 8.95335 28.2852 0 20 0C31.0453 0 40.0003 8.95335 40.0003 20Z" fill="white"/>
<path d="M20.0001 34.9996C11.7149 34.9996 5 28.2845 5 19.9996C5 11.7146 11.7149 4.99951 20.0001 4.99951C14.4751 4.99951 9.99995 11.7146 9.99995 19.9996C9.99995 28.2845 14.4751 34.9996 20.0001 34.9996Z" fill="white"/>
<path d="M35.0002 20.0001C35.0002 28.2851 28.285 34.9999 20 34.9999C25.525 34.9999 30.0001 28.2851 30.0001 20.0001C30.0001 11.715 25.525 5.00012 20 5.00012C28.285 5.00012 35.0002 11.715 35.0002 20.0001Z" fill="white"/>
<path d="M14.9999 20C14.9999 14.4772 17.2387 9.99994 20 9.99994C14.477 9.99994 10 14.4772 10 20C10 25.5228 14.477 30 20 30C17.2387 30 14.9999 25.5228 14.9999 20Z" fill="white"/>
<path d="M20 9.99915C22.7615 9.99915 25 14.4763 25 19.9991C25 25.522 22.7615 29.9991 20 29.9991C25.5229 29.9991 30.0001 25.522 30.0001 19.9991C30.0001 14.4763 25.5229 9.99915 20 9.99915Z" fill="white"/>
</svg>
